<?xml version="1.0" encoding="utf-8"?>
<!-- Generator: Adobe Illustrator 24.3.0, SVG Export Plug-In . SVG Version: 6.00 Build 0)  -->
<svg version="1.1" id="Capa_1" xmlns="http://www.w3.org/2000/svg" xmlns:xlink="http://www.w3.org/1999/xlink" x="0px" y="0px"
	 viewBox="0 0 180 49" style="enable-background:new 0 0 180 49;" xml:space="preserve">
<style type="text/css">
	.st0{fill:#FFFFFF;}
	.st1{fill-rule:evenodd;clip-rule:evenodd;fill:#FFFFFF;}
	.st2{fill-rule:evenodd;clip-rule:evenodd;fill:#1D1D1B;}
	.st3{fill-rule:evenodd;clip-rule:evenodd;fill:#FFCD00;}
	.st4{fill:#1D1D1B;}
</style>
<g>
	<g>
		<g>
			<path class="st0" d="M34.9,38l0.1-1.4l0.1-1.6l0-1.5v-0.5c0.6,0,1.2,0,1.9,0l0.7,0l1.1,0l0,0.8l-0.3,0c-0.1,0-0.2,0-0.4,0
				c-0.2,0-0.3,0-0.5,0c-0.4,0-0.6,0-0.7,0c-0.1,0-0.3,0-0.5,0l-0.1,1.3c0.3,0,0.7,0,1,0c0.2,0,0.6,0,1.2,0c0,0.2,0,0.5-0.1,0.8
				c-0.6,0-1,0-1.1,0c-0.3,0-0.6,0-1.1,0L36,37.3l0.4,0c0.1,0,0.4,0,0.8,0l0.8,0l0.5,0c0,0.3,0,0.5-0.1,0.8c-0.6,0-1.2,0-1.7,0
				l-1.2,0L34.9,38z"/>
			<path class="st0" d="M43.1,38c-0.2,0-0.4,0-0.5,0c-0.1,0-0.3,0-0.5,0l0-0.6c-0.1,0.1-0.2,0.2-0.3,0.3c-0.1,0.1-0.2,0.1-0.3,0.2
				c-0.1,0.1-0.2,0.1-0.4,0.1c-0.1,0-0.3,0-0.4,0c-0.2,0-0.5,0-0.7-0.1c-0.2-0.1-0.4-0.2-0.5-0.4c-0.1-0.2-0.2-0.3-0.3-0.5
				c-0.1-0.2-0.1-0.4-0.1-0.7c0-0.3,0.1-0.6,0.2-0.9c0.1-0.3,0.3-0.5,0.5-0.7c0.2-0.2,0.4-0.3,0.7-0.4c0.3-0.1,0.6-0.1,0.9-0.1
				c0.2,0,0.5,0,0.7,0.1c0-0.3,0-0.6,0-1v-0.2c0.2,0,0.4,0,0.5,0c0.2,0,0.3,0,0.5,0c-0.1,0.6-0.1,1.5-0.2,2.5
				C43.2,36.6,43.1,37.4,43.1,38z M42.2,35c-0.2,0-0.4-0.1-0.5-0.1c-0.2,0-0.4,0-0.5,0.1c-0.2,0.1-0.3,0.1-0.5,0.3
				c-0.1,0.1-0.2,0.3-0.3,0.5c-0.1,0.2-0.1,0.4-0.1,0.6c0,0.2,0,0.4,0.1,0.5c0.1,0.2,0.2,0.3,0.3,0.4c0.1,0.1,0.3,0.1,0.5,0.1
				c0.1,0,0.3,0,0.4-0.1c0.1,0,0.2-0.1,0.3-0.2c0.1-0.1,0.2-0.2,0.2-0.4c0.1-0.2,0.1-0.4,0.1-0.6C42.2,35.9,42.2,35.5,42.2,35z"/>
			<path class="st0" d="M47.8,38c-0.2,0-0.4,0-0.5,0c-0.1,0-0.3,0-0.5,0l0-0.6c-0.1,0.1-0.1,0.2-0.2,0.2c-0.1,0.1-0.1,0.1-0.2,0.2
				c-0.1,0.1-0.2,0.1-0.3,0.1c-0.1,0-0.2,0.1-0.3,0.1c-0.1,0-0.3,0-0.4,0c-0.3,0-0.5,0-0.7-0.1c-0.2-0.1-0.4-0.2-0.5-0.4
				c-0.1-0.2-0.2-0.4-0.2-0.7v-0.1l0.1-0.9l0.1-1.2c0-0.1,0-0.2,0-0.4c0.2,0,0.4,0,0.5,0c0.1,0,0.3,0,0.5,0L45.1,36
				c0,0.1,0,0.2,0,0.3c0,0.1,0,0.2,0,0.2c0,0.2,0,0.3,0.1,0.4c0.1,0.1,0.1,0.2,0.3,0.3c0.1,0.1,0.3,0.1,0.4,0.1c0.1,0,0.3,0,0.4-0.1
				c0.1,0,0.2-0.1,0.3-0.2c0.1-0.1,0.1-0.2,0.2-0.4c0-0.1,0.1-0.3,0.1-0.4c0-0.1,0-0.4,0-0.7c0-0.4,0-0.8,0-1.2c0.2,0,0.4,0,0.5,0
				c0.1,0,0.3,0,0.5,0c0,0.3-0.1,0.8-0.1,1.3c0,0.5-0.1,0.9-0.1,1.3C47.8,37.2,47.8,37.6,47.8,38z"/>
			<path class="st0" d="M51.6,37.2c0,0.1,0,0.2-0.1,0.3c0,0.1,0,0.3-0.1,0.5c-0.3,0.1-0.7,0.1-1,0.1c-0.2,0-0.4,0-0.6-0.1
				c-0.2,0-0.4-0.1-0.5-0.2c-0.2-0.1-0.3-0.2-0.4-0.4c-0.1-0.2-0.2-0.3-0.3-0.6c-0.1-0.2-0.1-0.4-0.1-0.7c0-0.3,0-0.6,0.1-0.9
				c0.1-0.3,0.2-0.5,0.4-0.7c0.2-0.2,0.4-0.3,0.6-0.4c0.2-0.1,0.5-0.1,0.8-0.1c0.2,0,0.3,0,0.5,0c0.2,0,0.4,0.1,0.6,0.1l0.1,0.8
				C51.3,35,51,35,50.7,35c-0.2,0-0.3,0-0.5,0.1c-0.1,0.1-0.3,0.1-0.4,0.3c-0.1,0.1-0.2,0.3-0.2,0.4c0,0.2-0.1,0.3-0.1,0.5
				c0,0.2,0,0.4,0.1,0.6c0.1,0.2,0.2,0.3,0.4,0.4c0.2,0.1,0.4,0.1,0.6,0.1c0.1,0,0.2,0,0.4,0C51.2,37.3,51.4,37.2,51.6,37.2z"/>
			<path class="st0" d="M52.6,35.1c0-0.2,0.1-0.3,0.1-0.4c0-0.1,0-0.2,0-0.3c0.3-0.1,0.6-0.1,0.9-0.2c0.3,0,0.5,0,0.7,0
				c0.3,0,0.5,0,0.7,0.1c0.2,0.1,0.4,0.2,0.5,0.3c0.1,0.1,0.2,0.3,0.2,0.6c0,0.1,0,0.5-0.1,1.1c0,0.6-0.1,1.1-0.1,1.8
				c-0.2,0-0.4,0-0.5,0c-0.1,0-0.3,0-0.5,0c0-0.3,0.1-0.6,0.1-1l0-0.9c-0.1,0.1-0.2,0.1-0.2,0.1c0,0-0.1,0-0.2,0.1
				c-0.1,0-0.2,0.1-0.3,0.1c-0.2,0-0.3,0.1-0.4,0.1c-0.1,0-0.2,0.1-0.2,0.1c-0.1,0-0.1,0.1-0.2,0.1c-0.1,0-0.1,0.1-0.1,0.2
				c0,0.1,0,0.1,0,0.2c0,0.1,0,0.2,0.1,0.3c0.1,0.1,0.1,0.1,0.2,0.2c0.1,0,0.2,0,0.3,0c0.1,0,0.2,0,0.2,0c0.1,0,0.2,0,0.3-0.1
				c-0.1,0.1-0.1,0.3-0.2,0.6c-0.2,0-0.3,0-0.4,0.1c-0.1,0-0.2,0-0.3,0c-0.3,0-0.6,0-0.8-0.1c-0.2-0.1-0.3-0.2-0.4-0.4
				c-0.1-0.2-0.1-0.4-0.1-0.5c0-0.1,0-0.2,0.1-0.3c0-0.1,0.1-0.2,0.2-0.3c0.1-0.1,0.2-0.2,0.3-0.2c0.1-0.1,0.3-0.2,0.5-0.2
				c0.2-0.1,0.5-0.1,0.8-0.2c0.1,0,0.2,0,0.3-0.1c0.1,0,0.2-0.1,0.2-0.1c0.1,0,0.1-0.1,0.2-0.1c0,0,0.1-0.1,0.1-0.1c0,0,0-0.1,0-0.1
				c0-0.1,0-0.2-0.1-0.2c-0.1-0.1-0.1-0.1-0.2-0.1c-0.1,0-0.2,0-0.3,0C53.6,34.8,53.1,34.9,52.6,35.1z"/>
			<path class="st0" d="M59.4,37.2c0,0.1,0,0.2-0.1,0.3c0,0.1-0.1,0.3-0.1,0.5c-0.3,0.1-0.7,0.1-1,0.1c-0.2,0-0.4,0-0.6-0.1
				c-0.2,0-0.4-0.1-0.5-0.2c-0.2-0.1-0.3-0.2-0.4-0.4c-0.1-0.2-0.2-0.3-0.3-0.6c-0.1-0.2-0.1-0.4-0.1-0.7c0-0.3,0-0.6,0.1-0.9
				c0.1-0.3,0.2-0.5,0.4-0.7c0.2-0.2,0.4-0.3,0.6-0.4c0.2-0.1,0.5-0.1,0.8-0.1c0.2,0,0.3,0,0.5,0c0.2,0,0.4,0.1,0.6,0.1l0.1,0.8
				C59.2,35,58.9,35,58.6,35c-0.2,0-0.3,0-0.5,0.1c-0.1,0.1-0.3,0.1-0.4,0.3c-0.1,0.1-0.2,0.3-0.2,0.4c0,0.2-0.1,0.3-0.1,0.5
				c0,0.2,0,0.4,0.1,0.6c0.1,0.2,0.2,0.3,0.4,0.4c0.2,0.1,0.4,0.1,0.6,0.1c0.1,0,0.2,0,0.4,0C59.1,37.3,59.3,37.2,59.4,37.2z"/>
			<path class="st0" d="M60.2,38c0-0.4,0.1-0.7,0.1-0.9c0-0.4,0-0.8,0.1-1.3c0-0.5,0-1,0-1.4c0.2,0,0.4,0,0.5,0c0.1,0,0.3,0,0.5,0
				c0,0.4-0.1,0.8-0.1,1.2c0,0.4,0,0.8,0,1.3c0,0.5,0,0.9,0,1.2c-0.2,0-0.4,0-0.5,0C60.6,38,60.4,38,60.2,38z M60.4,33.7
				c0-0.2,0-0.4,0-0.6V33c0.2,0,0.4,0,0.5,0c0.2,0,0.4,0,0.5,0c0,0.1,0,0.1,0,0.2l0,0.5c-0.2,0-0.4,0-0.5,0
				C60.8,33.7,60.6,33.7,60.4,33.7z"/>
			<path class="st0" d="M64.1,34.2c0.3,0,0.5,0,0.8,0.1c0.3,0.1,0.5,0.2,0.7,0.4c0.2,0.2,0.3,0.4,0.4,0.6c0.1,0.2,0.1,0.5,0.1,0.7
				c0,0.3,0,0.5-0.1,0.8c-0.1,0.3-0.2,0.5-0.4,0.7c-0.2,0.2-0.4,0.3-0.7,0.4c-0.3,0.1-0.6,0.1-0.9,0.1c-0.3,0-0.5,0-0.8-0.1
				c-0.3-0.1-0.5-0.2-0.6-0.4c-0.2-0.2-0.3-0.4-0.4-0.6c-0.1-0.2-0.1-0.5-0.1-0.8c0-0.3,0-0.5,0.1-0.8c0.1-0.2,0.2-0.5,0.4-0.6
				c0.2-0.2,0.4-0.3,0.7-0.4C63.5,34.3,63.8,34.2,64.1,34.2z M64.1,35c-0.2,0-0.4,0.1-0.6,0.2c-0.2,0.1-0.3,0.3-0.4,0.5
				c-0.1,0.2-0.1,0.4-0.1,0.7c0,0.2,0,0.4,0.1,0.6c0.1,0.2,0.2,0.3,0.3,0.4c0.2,0.1,0.3,0.2,0.5,0.2c0.2,0,0.4-0.1,0.6-0.2
				c0.2-0.1,0.3-0.3,0.4-0.5c0.1-0.2,0.1-0.4,0.1-0.7c0-0.2,0-0.4-0.1-0.5c-0.1-0.2-0.2-0.3-0.3-0.4C64.5,35,64.4,35,64.1,35z
				 M63.7,33.8l0.1-0.3c0-0.1,0.1-0.2,0.1-0.3c0-0.1,0.1-0.2,0.1-0.3c0.2,0,0.4,0,0.5,0c0.1,0,0.3,0,0.5,0c-0.2,0.2-0.3,0.4-0.4,0.5
				l-0.3,0.4c-0.1,0-0.3,0-0.4,0C64,33.8,63.8,33.8,63.7,33.8z"/>
			<path class="st0" d="M66.7,38c0.1-0.5,0.1-1.2,0.1-1.9c0-0.7,0.1-1.3,0.1-1.8c0.2,0,0.4,0,0.5,0c0.2,0,0.3,0,0.5,0l0,0.6
				c0.1-0.1,0.1-0.2,0.2-0.3c0.1-0.1,0.1-0.1,0.2-0.2c0.1-0.1,0.2-0.1,0.3-0.1c0.1,0,0.2-0.1,0.3-0.1c0.1,0,0.3,0,0.4,0
				c0.2,0,0.4,0,0.6,0.1c0.2,0.1,0.4,0.1,0.5,0.3c0.1,0.1,0.2,0.2,0.2,0.4c0,0.1,0.1,0.3,0.1,0.4c0,0.1,0,0.2,0,0.3l-0.1,1.6
				c0,0.2,0,0.5,0,0.7c-0.2,0-0.4,0-0.5,0c-0.2,0-0.4,0-0.6,0c0-0.2,0-0.6,0.1-1.1c0-0.5,0-0.9,0-1c0-0.2,0-0.3-0.1-0.5
				c-0.1-0.1-0.2-0.2-0.3-0.3c-0.1-0.1-0.3-0.1-0.4-0.1c-0.1,0-0.3,0-0.4,0.1c-0.1,0.1-0.2,0.1-0.3,0.2c-0.1,0.1-0.2,0.2-0.2,0.4
				c-0.1,0.2-0.1,0.4-0.1,0.8c0,0.3,0,0.8-0.1,1.4c-0.2,0-0.4,0-0.5,0C67.1,38,66.9,38,66.7,38z"/>
			<path class="st0" d="M77.1,38c-0.2,0-0.4,0-0.5,0c-0.1,0-0.3,0-0.5,0l0-0.6c-0.1,0.1-0.2,0.2-0.3,0.3c-0.1,0.1-0.2,0.1-0.3,0.2
				c-0.1,0.1-0.2,0.1-0.4,0.1c-0.1,0-0.3,0-0.4,0c-0.2,0-0.4,0-0.7-0.1c-0.2-0.1-0.4-0.2-0.5-0.4c-0.1-0.2-0.2-0.3-0.3-0.5
				c-0.1-0.2-0.1-0.4-0.1-0.7c0-0.3,0.1-0.6,0.2-0.9c0.1-0.3,0.3-0.5,0.5-0.7c0.2-0.2,0.4-0.3,0.7-0.4c0.3-0.1,0.6-0.1,0.9-0.1
				c0.2,0,0.5,0,0.7,0.1c0-0.3,0-0.6,0-1v-0.2c0.2,0,0.4,0,0.5,0c0.2,0,0.3,0,0.5,0c-0.1,0.6-0.1,1.5-0.2,2.5
				C77.2,36.6,77.1,37.4,77.1,38z M76.2,35c-0.2,0-0.4-0.1-0.5-0.1c-0.2,0-0.4,0-0.5,0.1c-0.2,0.1-0.3,0.1-0.5,0.3
				c-0.1,0.1-0.2,0.3-0.3,0.5c-0.1,0.2-0.1,0.4-0.1,0.6c0,0.2,0,0.4,0.1,0.5c0.1,0.2,0.2,0.3,0.3,0.4c0.1,0.1,0.3,0.1,0.5,0.1
				c0.1,0,0.3,0,0.4-0.1c0.1,0,0.2-0.1,0.3-0.2c0.1-0.1,0.2-0.2,0.2-0.4c0.1-0.2,0.1-0.4,0.1-0.6C76.2,35.9,76.2,35.5,76.2,35z"/>
			<path class="st0" d="M81.3,37.2c0,0.1-0.1,0.4-0.1,0.8c-0.3,0.1-0.5,0.1-0.7,0.1c-0.2,0-0.4,0-0.5,0c-0.3,0-0.6,0-0.9-0.1
				c-0.3-0.1-0.5-0.2-0.7-0.3c-0.2-0.2-0.3-0.4-0.4-0.6c-0.1-0.2-0.1-0.5-0.1-0.8c0-0.3,0.1-0.6,0.2-0.9c0.1-0.3,0.2-0.5,0.4-0.7
				c0.2-0.2,0.4-0.3,0.6-0.4c0.2-0.1,0.5-0.1,0.8-0.1c0.2,0,0.5,0,0.7,0.1c0.2,0.1,0.4,0.2,0.6,0.3c0.2,0.1,0.3,0.3,0.3,0.5
				c0.1,0.2,0.1,0.4,0.1,0.7c0,0.1,0,0.2,0,0.4l-2.7,0c0,0.1,0,0.2,0,0.2c0,0.2,0,0.3,0.1,0.4c0.1,0.1,0.1,0.3,0.2,0.3
				c0.1,0.1,0.2,0.2,0.4,0.2c0.1,0,0.3,0.1,0.4,0.1c0.2,0,0.3,0,0.5-0.1C80.8,37.3,81.1,37.3,81.3,37.2z M79,35.7l1.7,0
				c0-0.1,0-0.2,0-0.3c0-0.1,0-0.1,0-0.2c0-0.1-0.1-0.1-0.1-0.2c0-0.1-0.1-0.1-0.2-0.1c-0.1,0-0.1-0.1-0.2-0.1c-0.1,0-0.2,0-0.2,0
				c-0.1,0-0.2,0-0.3,0c-0.1,0-0.2,0.1-0.3,0.1c-0.1,0.1-0.1,0.1-0.2,0.2c-0.1,0.1-0.1,0.1-0.1,0.2C79,35.5,79,35.6,79,35.7z"/>
			<path class="st0" d="M87,37.2c0,0.1,0,0.2-0.1,0.3c0,0.1,0,0.3-0.1,0.5c-0.3,0.1-0.7,0.1-1,0.1c-0.2,0-0.4,0-0.6-0.1
				c-0.2,0-0.4-0.1-0.5-0.2c-0.2-0.1-0.3-0.2-0.4-0.4c-0.1-0.2-0.2-0.3-0.3-0.6C84,36.7,84,36.5,84,36.3c0-0.3,0-0.6,0.1-0.9
				c0.1-0.3,0.2-0.5,0.4-0.7c0.2-0.2,0.4-0.3,0.6-0.4c0.2-0.1,0.5-0.1,0.8-0.1c0.2,0,0.3,0,0.5,0c0.2,0,0.4,0.1,0.6,0.1l0.1,0.8
				C86.7,35,86.4,35,86.1,35c-0.2,0-0.3,0-0.5,0.1c-0.1,0.1-0.3,0.1-0.4,0.3c-0.1,0.1-0.2,0.3-0.2,0.4c0,0.2-0.1,0.3-0.1,0.5
				c0,0.2,0,0.4,0.1,0.6c0.1,0.2,0.2,0.3,0.4,0.4c0.2,0.1,0.4,0.1,0.6,0.1c0.1,0,0.2,0,0.4,0C86.6,37.3,86.8,37.2,87,37.2z"/>
			<path class="st0" d="M88,35.1c0-0.2,0.1-0.3,0.1-0.4c0-0.1,0-0.2,0-0.3c0.3-0.1,0.6-0.1,0.9-0.2c0.3,0,0.5,0,0.7,0
				c0.3,0,0.5,0,0.7,0.1c0.2,0.1,0.4,0.2,0.5,0.3c0.1,0.1,0.2,0.3,0.2,0.6c0,0.1,0,0.5-0.1,1.1c0,0.6-0.1,1.1-0.1,1.8
				c-0.2,0-0.4,0-0.5,0c-0.1,0-0.3,0-0.5,0c0-0.3,0.1-0.6,0.1-1l0-0.9c-0.1,0.1-0.2,0.1-0.2,0.1c0,0-0.1,0-0.2,0.1
				c-0.1,0-0.2,0.1-0.3,0.1c-0.2,0-0.3,0.1-0.4,0.1c-0.1,0-0.2,0.1-0.2,0.1c-0.1,0-0.1,0.1-0.2,0.1c-0.1,0-0.1,0.1-0.1,0.2
				c0,0.1,0,0.1,0,0.2c0,0.1,0,0.2,0.1,0.3c0.1,0.1,0.1,0.1,0.2,0.2c0.1,0,0.2,0,0.3,0c0.1,0,0.2,0,0.2,0c0.1,0,0.2,0,0.3-0.1
				c-0.1,0.1-0.1,0.3-0.2,0.6c-0.2,0-0.3,0-0.4,0.1c-0.1,0-0.2,0-0.3,0c-0.3,0-0.6,0-0.8-0.1c-0.2-0.1-0.3-0.2-0.4-0.4
				c-0.1-0.2-0.1-0.4-0.1-0.5c0-0.1,0-0.2,0.1-0.3c0-0.1,0.1-0.2,0.2-0.3c0.1-0.1,0.2-0.2,0.3-0.2c0.1-0.1,0.3-0.2,0.5-0.2
				c0.2-0.1,0.5-0.1,0.8-0.2c0.1,0,0.2,0,0.3-0.1c0.1,0,0.2-0.1,0.2-0.1c0.1,0,0.1-0.1,0.2-0.1c0,0,0.1-0.1,0.1-0.1c0,0,0-0.1,0-0.1
				c0-0.1,0-0.2-0.1-0.2c-0.1-0.1-0.1-0.1-0.2-0.1c-0.1,0-0.2,0-0.3,0C89,34.8,88.5,34.9,88,35.1z"/>
			<path class="st0" d="M91.9,38c0-0.4,0.1-1.1,0.1-2.2c0.1-1.1,0.1-2,0.1-2.8c0.3,0,0.4,0,0.5,0c0.1,0,0.3,0,0.5,0l-0.1,1.3l-0.1,3
				l0,0.7c-0.2,0-0.4,0-0.5,0C92.4,38,92.2,38,91.9,38z"/>
			<path class="st0" d="M93.9,38c0-0.4,0.1-0.7,0.1-0.9c0-0.4,0-0.8,0.1-1.3c0-0.5,0-1,0-1.4c0.2,0,0.4,0,0.5,0c0.1,0,0.3,0,0.5,0
				c0,0.4-0.1,0.8-0.1,1.2c0,0.4,0,0.8,0,1.3c0,0.5,0,0.9,0,1.2c-0.2,0-0.4,0-0.5,0C94.3,38,94.1,38,93.9,38z M94.1,33.7
				c0-0.2,0-0.4,0-0.6V33c0.2,0,0.4,0,0.5,0c0.2,0,0.4,0,0.5,0c0,0.1,0,0.1,0,0.2l0,0.5c-0.2,0-0.4,0-0.5,0
				C94.5,33.7,94.3,33.7,94.1,33.7z"/>
			<path class="st0" d="M99.6,38c-0.2,0-0.4,0-0.5,0c-0.1,0-0.3,0-0.5,0l0-0.6c-0.1,0.1-0.2,0.2-0.3,0.3c-0.1,0.1-0.2,0.1-0.3,0.2
				C98,38,97.9,38,97.8,38.1c-0.1,0-0.3,0-0.4,0c-0.2,0-0.5,0-0.7-0.1c-0.2-0.1-0.4-0.2-0.5-0.4c-0.1-0.2-0.2-0.3-0.3-0.5
				c-0.1-0.2-0.1-0.4-0.1-0.7c0-0.3,0.1-0.6,0.2-0.9c0.1-0.3,0.3-0.5,0.5-0.7c0.2-0.2,0.4-0.3,0.7-0.4c0.3-0.1,0.6-0.1,0.9-0.1
				c0.2,0,0.5,0,0.7,0.1c0-0.3,0-0.6,0-1v-0.2c0.2,0,0.4,0,0.5,0c0.2,0,0.3,0,0.5,0c-0.1,0.6-0.1,1.5-0.2,2.5
				C99.6,36.6,99.6,37.4,99.6,38z M98.7,35c-0.2,0-0.4-0.1-0.5-0.1c-0.2,0-0.4,0-0.5,0.1c-0.2,0.1-0.3,0.1-0.5,0.3
				c-0.1,0.1-0.2,0.3-0.3,0.5c-0.1,0.2-0.1,0.4-0.1,0.6c0,0.2,0,0.4,0.1,0.5c0.1,0.2,0.2,0.3,0.3,0.4c0.1,0.1,0.3,0.1,0.5,0.1
				c0.1,0,0.3,0,0.4-0.1c0.1,0,0.2-0.1,0.3-0.2c0.1-0.1,0.2-0.2,0.2-0.4c0.1-0.2,0.1-0.4,0.1-0.6C98.7,35.9,98.7,35.5,98.7,35z"/>
			<path class="st0" d="M100.8,35.1c0-0.2,0.1-0.3,0.1-0.4c0-0.1,0-0.2,0-0.3c0.3-0.1,0.6-0.1,0.9-0.2c0.3,0,0.5,0,0.7,0
				c0.3,0,0.5,0,0.7,0.1c0.2,0.1,0.4,0.2,0.5,0.3c0.1,0.1,0.2,0.3,0.2,0.6c0,0.1,0,0.5-0.1,1.1c0,0.6-0.1,1.1-0.1,1.8
				c-0.2,0-0.4,0-0.5,0c-0.1,0-0.3,0-0.5,0c0-0.3,0.1-0.6,0.1-1l0-0.9c-0.1,0.1-0.2,0.1-0.2,0.1c0,0-0.1,0-0.2,0.1
				c-0.1,0-0.2,0.1-0.3,0.1c-0.2,0-0.3,0.1-0.4,0.1c-0.1,0-0.2,0.1-0.2,0.1c-0.1,0-0.1,0.1-0.2,0.1s-0.1,0.1-0.1,0.2
				c0,0.1,0,0.1,0,0.2c0,0.1,0,0.2,0.1,0.3c0.1,0.1,0.1,0.1,0.2,0.2c0.1,0,0.2,0,0.3,0c0.1,0,0.2,0,0.2,0c0.1,0,0.2,0,0.3-0.1
				c-0.1,0.1-0.1,0.3-0.2,0.6c-0.2,0-0.3,0-0.4,0.1c-0.1,0-0.2,0-0.3,0c-0.3,0-0.6,0-0.8-0.1c-0.2-0.1-0.3-0.2-0.4-0.4
				c-0.1-0.2-0.1-0.4-0.1-0.5c0-0.1,0-0.2,0.1-0.3c0-0.1,0.1-0.2,0.2-0.3c0.1-0.1,0.2-0.2,0.3-0.2c0.1-0.1,0.3-0.2,0.5-0.2
				c0.2-0.1,0.5-0.1,0.8-0.2c0.1,0,0.2,0,0.3-0.1c0.1,0,0.2-0.1,0.2-0.1c0.1,0,0.1-0.1,0.2-0.1c0,0,0.1-0.1,0.1-0.1c0,0,0-0.1,0-0.1
				c0-0.1,0-0.2-0.1-0.2c-0.1-0.1-0.1-0.1-0.2-0.1c-0.1,0-0.2,0-0.3,0C101.8,34.8,101.3,34.9,100.8,35.1z"/>
			<path class="st0" d="M108.5,38c-0.2,0-0.4,0-0.5,0c-0.1,0-0.3,0-0.5,0l0-0.6c-0.1,0.1-0.2,0.2-0.3,0.3c-0.1,0.1-0.2,0.1-0.3,0.2
				c-0.1,0.1-0.2,0.1-0.4,0.1c-0.1,0-0.3,0-0.4,0c-0.2,0-0.4,0-0.7-0.1c-0.2-0.1-0.4-0.2-0.5-0.4c-0.1-0.2-0.2-0.3-0.3-0.5
				c-0.1-0.2-0.1-0.4-0.1-0.7c0-0.3,0.1-0.6,0.2-0.9c0.1-0.3,0.3-0.5,0.5-0.7c0.2-0.2,0.4-0.3,0.7-0.4c0.3-0.1,0.6-0.1,0.9-0.1
				c0.2,0,0.5,0,0.7,0.1c0-0.3,0-0.6,0-1v-0.2c0.2,0,0.4,0,0.5,0c0.2,0,0.3,0,0.5,0c-0.1,0.6-0.1,1.5-0.2,2.5
				C108.5,36.6,108.5,37.4,108.5,38z M107.6,35c-0.2,0-0.4-0.1-0.5-0.1c-0.2,0-0.4,0-0.5,0.1c-0.2,0.1-0.3,0.1-0.5,0.3
				c-0.1,0.1-0.2,0.3-0.3,0.5c-0.1,0.2-0.1,0.4-0.1,0.6c0,0.2,0,0.4,0.1,0.5c0.1,0.2,0.2,0.3,0.3,0.4c0.1,0.1,0.3,0.1,0.5,0.1
				c0.1,0,0.3,0,0.4-0.1c0.1,0,0.2-0.1,0.3-0.2c0.1-0.1,0.2-0.2,0.2-0.4c0.1-0.2,0.1-0.4,0.1-0.6C107.6,35.9,107.6,35.5,107.6,35z"
				/>
			<path class="st0" d="M111.5,35.1c0-0.2,0.1-0.3,0.1-0.4c0-0.1,0-0.2,0-0.3c0.3-0.1,0.6-0.1,0.9-0.2c0.3,0,0.5,0,0.7,0
				c0.3,0,0.5,0,0.7,0.1c0.2,0.1,0.4,0.2,0.5,0.3c0.1,0.1,0.2,0.3,0.2,0.6c0,0.1,0,0.5-0.1,1.1c0,0.6-0.1,1.1-0.1,1.8
				c-0.2,0-0.4,0-0.5,0c-0.1,0-0.3,0-0.5,0c0-0.3,0.1-0.6,0.1-1l0-0.9c-0.1,0.1-0.2,0.1-0.2,0.1c0,0-0.1,0-0.2,0.1
				c-0.1,0-0.2,0.1-0.3,0.1c-0.2,0-0.3,0.1-0.4,0.1c-0.1,0-0.2,0.1-0.2,0.1c-0.1,0-0.1,0.1-0.2,0.1c-0.1,0-0.1,0.1-0.1,0.2
				c0,0.1,0,0.1,0,0.2c0,0.1,0,0.2,0.1,0.3c0.1,0.1,0.1,0.1,0.2,0.2c0.1,0,0.2,0,0.3,0c0.1,0,0.2,0,0.2,0c0.1,0,0.2,0,0.3-0.1
				c-0.1,0.1-0.1,0.3-0.2,0.6c-0.2,0-0.3,0-0.4,0.1c-0.1,0-0.2,0-0.3,0c-0.3,0-0.6,0-0.8-0.1c-0.2-0.1-0.3-0.2-0.4-0.4
				c-0.1-0.2-0.1-0.4-0.1-0.5c0-0.1,0-0.2,0.1-0.3c0-0.1,0.1-0.2,0.2-0.3c0.1-0.1,0.2-0.2,0.3-0.2c0.1-0.1,0.3-0.2,0.5-0.2
				c0.2-0.1,0.5-0.1,0.8-0.2c0.1,0,0.2,0,0.3-0.1c0.1,0,0.2-0.1,0.2-0.1c0.1,0,0.1-0.1,0.2-0.1c0,0,0.1-0.1,0.1-0.1c0,0,0-0.1,0-0.1
				c0-0.1,0-0.2-0.1-0.2c-0.1-0.1-0.1-0.1-0.2-0.1c-0.1,0-0.2,0-0.3,0C112.6,34.8,112.1,34.9,111.5,35.1z"/>
			<path class="st0" d="M115.5,38c0-0.4,0.1-1.1,0.1-2.2c0.1-1.1,0.1-2,0.1-2.8c0.3,0,0.4,0,0.5,0c0.1,0,0.3,0,0.5,0l-0.1,1.3
				l-0.1,3l0,0.7c-0.2,0-0.4,0-0.5,0C116,38,115.8,38,115.5,38z"/>
			<path class="st0" d="M119.6,35.1c0-0.2,0.1-0.3,0.1-0.4c0-0.1,0-0.2,0-0.3c0.3-0.1,0.6-0.1,0.9-0.2c0.3,0,0.5,0,0.7,0
				c0.3,0,0.5,0,0.7,0.1c0.2,0.1,0.4,0.2,0.5,0.3c0.1,0.1,0.2,0.3,0.2,0.6c0,0.1,0,0.5-0.1,1.1c0,0.6-0.1,1.1-0.1,1.8
				c-0.2,0-0.4,0-0.5,0c-0.1,0-0.3,0-0.5,0c0-0.3,0.1-0.6,0.1-1l0-0.9c-0.1,0.1-0.2,0.1-0.2,0.1c0,0-0.1,0-0.2,0.1
				c-0.1,0-0.2,0.1-0.3,0.1c-0.2,0-0.3,0.1-0.4,0.1c-0.1,0-0.2,0.1-0.2,0.1c-0.1,0-0.1,0.1-0.2,0.1c-0.1,0-0.1,0.1-0.1,0.2
				c0,0.1,0,0.1,0,0.2c0,0.1,0,0.2,0.1,0.3c0.1,0.1,0.1,0.1,0.2,0.2c0.1,0,0.2,0,0.3,0c0.1,0,0.2,0,0.2,0c0.1,0,0.2,0,0.3-0.1
				c-0.1,0.1-0.1,0.3-0.2,0.6c-0.2,0-0.3,0-0.4,0.1c-0.1,0-0.2,0-0.3,0c-0.3,0-0.6,0-0.8-0.1c-0.2-0.1-0.3-0.2-0.4-0.4
				c-0.1-0.2-0.1-0.4-0.1-0.5c0-0.1,0-0.2,0.1-0.3c0-0.1,0.1-0.2,0.2-0.3c0.1-0.1,0.2-0.2,0.3-0.2c0.1-0.1,0.3-0.2,0.5-0.2
				c0.2-0.1,0.5-0.1,0.8-0.2c0.1,0,0.2,0,0.3-0.1c0.1,0,0.2-0.1,0.2-0.1c0.1,0,0.1-0.1,0.2-0.1c0,0,0.1-0.1,0.1-0.1c0,0,0-0.1,0-0.1
				c0-0.1,0-0.2-0.1-0.2c-0.1-0.1-0.1-0.1-0.2-0.1c-0.1,0-0.2,0-0.3,0C120.6,34.8,120.1,34.9,119.6,35.1z"/>
			<path class="st0" d="M123.5,38c0-0.4,0.1-1.1,0.1-2.2c0.1-1.1,0.1-2,0.1-2.8c0.3,0,0.4,0,0.5,0c0.1,0,0.3,0,0.5,0l-0.1,1.3
				l-0.1,3l0,0.7c-0.2,0-0.4,0-0.5,0C124,38,123.8,38,123.5,38z"/>
			<path class="st0" d="M128.4,37.2c0,0.1,0,0.2-0.1,0.3c0,0.1,0,0.3-0.1,0.5c-0.3,0.1-0.7,0.1-1,0.1c-0.2,0-0.4,0-0.6-0.1
				c-0.2,0-0.4-0.1-0.5-0.2c-0.2-0.1-0.3-0.2-0.4-0.4c-0.1-0.2-0.2-0.3-0.3-0.6c-0.1-0.2-0.1-0.4-0.1-0.7c0-0.3,0-0.6,0.1-0.9
				c0.1-0.3,0.2-0.5,0.4-0.7c0.2-0.2,0.4-0.3,0.6-0.4c0.2-0.1,0.5-0.1,0.8-0.1c0.2,0,0.3,0,0.5,0c0.2,0,0.4,0.1,0.6,0.1l0.1,0.8
				c-0.4-0.1-0.7-0.2-0.9-0.2c-0.2,0-0.3,0-0.5,0.1s-0.3,0.1-0.4,0.3c-0.1,0.1-0.2,0.3-0.2,0.4c0,0.2-0.1,0.3-0.1,0.5
				c0,0.2,0,0.4,0.1,0.6c0.1,0.2,0.2,0.3,0.4,0.4c0.2,0.1,0.4,0.1,0.6,0.1c0.1,0,0.2,0,0.4,0C128,37.3,128.2,37.2,128.4,37.2z"/>
			<path class="st0" d="M129.4,35.1c0-0.2,0.1-0.3,0.1-0.4c0-0.1,0-0.2,0-0.3c0.3-0.1,0.6-0.1,0.9-0.2c0.3,0,0.5,0,0.7,0
				c0.3,0,0.5,0,0.7,0.1c0.2,0.1,0.4,0.2,0.5,0.3c0.1,0.1,0.2,0.3,0.2,0.6c0,0.1,0,0.5-0.1,1.1c0,0.6-0.1,1.1-0.1,1.8
				c-0.2,0-0.4,0-0.5,0c-0.1,0-0.3,0-0.5,0c0-0.3,0.1-0.6,0.1-1l0-0.9c-0.1,0.1-0.2,0.1-0.2,0.1c0,0-0.1,0-0.2,0.1
				c-0.1,0-0.2,0.1-0.3,0.1c-0.2,0-0.3,0.1-0.4,0.1c-0.1,0-0.2,0.1-0.2,0.1c-0.1,0-0.1,0.1-0.2,0.1c-0.1,0-0.1,0.1-0.1,0.2
				c0,0.1,0,0.1,0,0.2c0,0.1,0,0.2,0.1,0.3c0.1,0.1,0.1,0.1,0.2,0.2c0.1,0,0.2,0,0.3,0c0.1,0,0.2,0,0.2,0c0.1,0,0.2,0,0.3-0.1
				c-0.1,0.1-0.1,0.3-0.2,0.6c-0.2,0-0.3,0-0.4,0.1c-0.1,0-0.2,0-0.3,0c-0.3,0-0.6,0-0.8-0.1c-0.2-0.1-0.3-0.2-0.4-0.4
				c-0.1-0.2-0.1-0.4-0.1-0.5c0-0.1,0-0.2,0.1-0.3c0-0.1,0.1-0.2,0.2-0.3c0.1-0.1,0.2-0.2,0.3-0.2c0.1-0.1,0.3-0.2,0.5-0.2
				c0.2-0.1,0.5-0.1,0.8-0.2c0.1,0,0.2,0,0.3-0.1c0.1,0,0.2-0.1,0.2-0.1c0.1,0,0.1-0.1,0.2-0.1c0,0,0.1-0.1,0.1-0.1c0,0,0-0.1,0-0.1
				c0-0.1,0-0.2-0.1-0.2c-0.1-0.1-0.1-0.1-0.2-0.1c-0.1,0-0.2,0-0.3,0C130.4,34.8,129.9,34.9,129.4,35.1z"/>
			<path class="st0" d="M133.3,38c0.1-0.5,0.1-1.2,0.1-1.9c0-0.7,0.1-1.3,0.1-1.8c0.2,0,0.4,0,0.5,0c0.2,0,0.3,0,0.5,0l0,0.6
				c0.1-0.1,0.1-0.2,0.2-0.3c0.1-0.1,0.1-0.1,0.2-0.2c0.1-0.1,0.2-0.1,0.3-0.1c0.1,0,0.2-0.1,0.3-0.1c0.1,0,0.3,0,0.4,0
				c0.2,0,0.4,0,0.6,0.1c0.2,0.1,0.4,0.1,0.5,0.3c0.1,0.1,0.2,0.2,0.2,0.4c0,0.1,0.1,0.3,0.1,0.4c0,0.1,0,0.2,0,0.3l-0.1,1.6
				c0,0.2,0,0.5,0,0.7c-0.2,0-0.4,0-0.5,0c-0.2,0-0.4,0-0.6,0c0-0.2,0-0.6,0.1-1.1c0-0.5,0-0.9,0-1c0-0.2,0-0.3-0.1-0.5
				c-0.1-0.1-0.2-0.2-0.3-0.3c-0.1-0.1-0.3-0.1-0.4-0.1c-0.1,0-0.3,0-0.4,0.1c-0.1,0.1-0.2,0.1-0.3,0.2c-0.1,0.1-0.2,0.2-0.2,0.4
				c-0.1,0.2-0.1,0.4-0.1,0.8c0,0.3,0,0.8-0.1,1.4c-0.2,0-0.4,0-0.5,0C133.7,38,133.5,38,133.3,38z"/>
			<path class="st0" d="M141,37.2c0,0.1,0,0.2-0.1,0.3c0,0.1,0,0.3-0.1,0.5c-0.3,0.1-0.7,0.1-1,0.1c-0.2,0-0.4,0-0.6-0.1
				c-0.2,0-0.4-0.1-0.5-0.2c-0.2-0.1-0.3-0.2-0.4-0.4c-0.1-0.2-0.2-0.3-0.3-0.6c-0.1-0.2-0.1-0.4-0.1-0.7c0-0.3,0-0.6,0.1-0.9
				c0.1-0.3,0.2-0.5,0.4-0.7c0.2-0.2,0.4-0.3,0.6-0.4c0.2-0.1,0.5-0.1,0.8-0.1c0.2,0,0.3,0,0.5,0c0.2,0,0.4,0.1,0.6,0.1l0.1,0.8
				c-0.4-0.1-0.7-0.2-0.9-0.2c-0.2,0-0.3,0-0.5,0.1c-0.1,0.1-0.3,0.1-0.4,0.3c-0.1,0.1-0.2,0.3-0.2,0.4c0,0.2-0.1,0.3-0.1,0.5
				c0,0.2,0,0.4,0.1,0.6c0.1,0.2,0.2,0.3,0.4,0.4c0.2,0.1,0.4,0.1,0.6,0.1c0.1,0,0.2,0,0.4,0C140.7,37.3,140.8,37.2,141,37.2z"/>
			<path class="st0" d="M145,37.2c0,0.1-0.1,0.4-0.1,0.8c-0.3,0.1-0.5,0.1-0.7,0.1c-0.2,0-0.4,0-0.5,0c-0.3,0-0.6,0-0.9-0.1
				s-0.5-0.2-0.7-0.3c-0.2-0.2-0.3-0.4-0.4-0.6c-0.1-0.2-0.1-0.5-0.1-0.8c0-0.3,0.1-0.6,0.2-0.9c0.1-0.3,0.3-0.5,0.4-0.7
				c0.2-0.2,0.4-0.3,0.6-0.4c0.2-0.1,0.5-0.1,0.8-0.1c0.2,0,0.5,0,0.7,0.1c0.2,0.1,0.4,0.2,0.6,0.3c0.2,0.1,0.3,0.3,0.3,0.5
				c0.1,0.2,0.1,0.4,0.1,0.7c0,0.1,0,0.2,0,0.4l-2.7,0c0,0.1,0,0.2,0,0.2c0,0.2,0,0.3,0.1,0.4c0.1,0.1,0.1,0.3,0.2,0.3
				c0.1,0.1,0.2,0.2,0.4,0.2c0.1,0,0.3,0.1,0.4,0.1c0.2,0,0.3,0,0.5-0.1C144.5,37.3,144.8,37.3,145,37.2z M142.7,35.7l1.7,0
				c0-0.1,0-0.2,0-0.3c0-0.1,0-0.1,0-0.2c0-0.1-0.1-0.1-0.1-0.2c0-0.1-0.1-0.1-0.2-0.1c-0.1,0-0.1-0.1-0.2-0.1c-0.1,0-0.2,0-0.2,0
				c-0.1,0-0.2,0-0.3,0c-0.1,0-0.2,0.1-0.3,0.1c-0.1,0.1-0.1,0.1-0.2,0.2c0,0.1-0.1,0.1-0.1,0.2C142.7,35.5,142.7,35.6,142.7,35.7z"
				/>
			<path class="st0" d="M151.5,38c-0.2,0-0.4,0-0.5,0c-0.1,0-0.3,0-0.5,0l0-0.6c-0.1,0.1-0.2,0.2-0.3,0.3c-0.1,0.1-0.2,0.1-0.3,0.2
				c-0.1,0.1-0.2,0.1-0.4,0.1c-0.1,0-0.3,0-0.4,0c-0.2,0-0.5,0-0.7-0.1c-0.2-0.1-0.4-0.2-0.5-0.4c-0.1-0.2-0.2-0.3-0.3-0.5
				c-0.1-0.2-0.1-0.4-0.1-0.7c0-0.3,0.1-0.6,0.2-0.9c0.1-0.3,0.3-0.5,0.5-0.7c0.2-0.2,0.4-0.3,0.7-0.4c0.3-0.1,0.6-0.1,0.9-0.1
				c0.2,0,0.5,0,0.7,0.1c0-0.3,0-0.6,0-1v-0.2c0.2,0,0.4,0,0.5,0c0.2,0,0.3,0,0.5,0c-0.1,0.6-0.1,1.5-0.2,2.5
				C151.6,36.6,151.5,37.4,151.5,38z M150.6,35c-0.2,0-0.4-0.1-0.5-0.1c-0.2,0-0.4,0-0.5,0.1c-0.2,0.1-0.3,0.1-0.5,0.3
				c-0.1,0.1-0.2,0.3-0.3,0.5c-0.1,0.2-0.1,0.4-0.1,0.6c0,0.2,0,0.4,0.1,0.5c0.1,0.2,0.2,0.3,0.3,0.4c0.1,0.1,0.3,0.1,0.5,0.1
				c0.1,0,0.3,0,0.4-0.1c0.1,0,0.2-0.1,0.3-0.2c0.1-0.1,0.2-0.2,0.2-0.4c0.1-0.2,0.1-0.4,0.1-0.6C150.6,35.9,150.6,35.5,150.6,35z"
				/>
			<path class="st0" d="M155.7,37.2c0,0.1-0.1,0.4-0.1,0.8c-0.3,0.1-0.5,0.1-0.7,0.1c-0.2,0-0.4,0-0.5,0c-0.3,0-0.6,0-0.9-0.1
				c-0.3-0.1-0.5-0.2-0.7-0.3c-0.2-0.2-0.3-0.4-0.4-0.6c-0.1-0.2-0.1-0.5-0.1-0.8c0-0.3,0.1-0.6,0.2-0.9c0.1-0.3,0.2-0.5,0.4-0.7
				c0.2-0.2,0.4-0.3,0.6-0.4c0.2-0.1,0.5-0.1,0.8-0.1c0.2,0,0.5,0,0.7,0.1c0.2,0.1,0.4,0.2,0.6,0.3c0.2,0.1,0.3,0.3,0.3,0.5
				c0.1,0.2,0.1,0.4,0.1,0.7c0,0.1,0,0.2,0,0.4l-2.7,0c0,0.1,0,0.2,0,0.2c0,0.2,0,0.3,0.1,0.4c0.1,0.1,0.1,0.3,0.2,0.3
				c0.1,0.1,0.2,0.2,0.4,0.2c0.1,0,0.3,0.1,0.4,0.1c0.2,0,0.3,0,0.5-0.1C155.2,37.3,155.5,37.3,155.7,37.2z M153.4,35.7l1.7,0
				c0-0.1,0-0.2,0-0.3c0-0.1,0-0.1,0-0.2c0-0.1-0.1-0.1-0.1-0.2c0-0.1-0.1-0.1-0.2-0.1c-0.1,0-0.1-0.1-0.2-0.1c-0.1,0-0.2,0-0.2,0
				c-0.1,0-0.2,0-0.3,0c-0.1,0-0.2,0.1-0.3,0.1c-0.1,0.1-0.1,0.1-0.2,0.2c0,0.1-0.1,0.1-0.1,0.2C153.4,35.5,153.4,35.6,153.4,35.7z"
				/>
			<path class="st0" d="M160.7,37.3c0,0.1-0.1,0.4-0.1,0.7c-0.2,0-0.4,0.1-0.5,0.1c-0.1,0-0.2,0-0.3,0c-0.2,0-0.3,0-0.5-0.1
				c-0.1,0-0.3-0.1-0.3-0.2c-0.1-0.1-0.2-0.2-0.2-0.3c0-0.1,0-0.2,0-0.4c0,0,0-0.1,0-0.1c0-0.1,0-0.2,0-0.5l0.1-1.5h-0.5
				c0-0.1,0-0.4,0-0.7h0.5c0-0.1,0-0.4,0-0.7l0.4-0.1c0.1,0,0.3-0.1,0.5-0.1c0,0.3,0,0.6,0,0.9h0.9c0,0.3,0,0.6,0,0.7h-0.9
				c-0.1,1-0.1,1.6-0.1,1.7c0,0.1,0,0.3,0,0.3c0,0.1,0.1,0.1,0.2,0.2c0.1,0,0.2,0.1,0.2,0.1c0.1,0,0.1,0,0.2,0
				C160.4,37.3,160.6,37.3,160.7,37.3z"/>
			<path class="st0" d="M163.2,34.2c0.3,0,0.5,0,0.8,0.1c0.3,0.1,0.5,0.2,0.7,0.4c0.2,0.2,0.3,0.4,0.4,0.6c0.1,0.2,0.1,0.5,0.1,0.7
				c0,0.3,0,0.5-0.1,0.8c-0.1,0.3-0.2,0.5-0.4,0.7c-0.2,0.2-0.4,0.3-0.7,0.4c-0.3,0.1-0.6,0.1-0.9,0.1c-0.3,0-0.5,0-0.8-0.1
				c-0.3-0.1-0.5-0.2-0.6-0.4c-0.2-0.2-0.3-0.4-0.4-0.6c-0.1-0.2-0.1-0.5-0.1-0.8c0-0.3,0-0.5,0.1-0.8c0.1-0.2,0.2-0.5,0.4-0.6
				c0.2-0.2,0.4-0.3,0.7-0.4C162.6,34.3,162.9,34.2,163.2,34.2z M163.2,35c-0.2,0-0.4,0.1-0.6,0.2c-0.2,0.1-0.3,0.3-0.4,0.5
				c-0.1,0.2-0.1,0.4-0.1,0.7c0,0.2,0,0.4,0.1,0.6c0.1,0.2,0.2,0.3,0.3,0.4c0.2,0.1,0.3,0.2,0.5,0.2c0.2,0,0.4-0.1,0.6-0.2
				c0.2-0.1,0.3-0.3,0.4-0.5c0.1-0.2,0.1-0.4,0.1-0.7c0-0.2,0-0.4-0.1-0.5c-0.1-0.2-0.2-0.3-0.3-0.4C163.6,35,163.4,35,163.2,35z"/>
			<path class="st0" d="M169.6,38c-0.2,0-0.4,0-0.5,0c-0.1,0-0.3,0-0.5,0l0-0.6c-0.1,0.1-0.2,0.2-0.3,0.3c-0.1,0.1-0.2,0.1-0.3,0.2
				c-0.1,0.1-0.2,0.1-0.4,0.1c-0.1,0-0.3,0-0.4,0c-0.2,0-0.5,0-0.7-0.1c-0.2-0.1-0.4-0.2-0.5-0.4c-0.1-0.2-0.2-0.3-0.3-0.5
				c-0.1-0.2-0.1-0.4-0.1-0.7c0-0.3,0.1-0.6,0.2-0.9c0.1-0.3,0.3-0.5,0.5-0.7c0.2-0.2,0.4-0.3,0.7-0.4c0.3-0.1,0.6-0.1,0.9-0.1
				c0.2,0,0.5,0,0.7,0.1c0-0.3,0-0.6,0-1v-0.2c0.2,0,0.4,0,0.5,0c0.2,0,0.3,0,0.5,0c-0.1,0.6-0.1,1.5-0.2,2.5
				C169.6,36.6,169.6,37.4,169.6,38z M168.7,35c-0.2,0-0.4-0.1-0.5-0.1c-0.2,0-0.4,0-0.5,0.1c-0.2,0.1-0.3,0.1-0.5,0.3
				c-0.1,0.1-0.2,0.3-0.3,0.5c-0.1,0.2-0.1,0.4-0.1,0.6c0,0.2,0,0.4,0.1,0.5c0.1,0.2,0.2,0.3,0.3,0.4c0.1,0.1,0.3,0.1,0.5,0.1
				c0.1,0,0.3,0,0.4-0.1c0.1,0,0.2-0.1,0.3-0.2c0.1-0.1,0.2-0.2,0.2-0.4c0.1-0.2,0.1-0.4,0.1-0.6C168.6,35.9,168.7,35.5,168.7,35z"
				/>
			<g>
				<path class="st0" d="M172.5,34.2c0.3,0,0.5,0,0.8,0.1c0.3,0.1,0.5,0.2,0.6,0.4c0.2,0.2,0.3,0.4,0.4,0.6c0.1,0.2,0.1,0.5,0.1,0.7
					c0,0.3,0,0.5-0.1,0.8c-0.1,0.3-0.2,0.5-0.4,0.7c-0.2,0.2-0.4,0.3-0.7,0.4c-0.3,0.1-0.6,0.1-0.9,0.1c-0.3,0-0.5,0-0.8-0.1
					c-0.3-0.1-0.5-0.2-0.6-0.4c-0.2-0.2-0.3-0.4-0.4-0.6c-0.1-0.2-0.1-0.5-0.1-0.8c0-0.3,0-0.5,0.1-0.8c0.1-0.2,0.2-0.5,0.4-0.6
					c0.2-0.2,0.4-0.3,0.7-0.4C171.9,34.3,172.2,34.2,172.5,34.2z M172.5,35c-0.2,0-0.4,0.1-0.6,0.2c-0.2,0.1-0.3,0.3-0.4,0.5
					c-0.1,0.2-0.1,0.4-0.1,0.7c0,0.2,0,0.4,0.1,0.6c0.1,0.2,0.2,0.3,0.3,0.4c0.2,0.1,0.3,0.2,0.5,0.2c0.2,0,0.4-0.1,0.6-0.2
					c0.2-0.1,0.3-0.3,0.4-0.5c0.1-0.2,0.1-0.4,0.1-0.7c0-0.2,0-0.4-0.1-0.5c-0.1-0.2-0.2-0.3-0.3-0.4C172.9,35,172.7,35,172.5,35z"
					/>
				<path class="st0" d="M175,37.9l-0.1-0.8c0.2,0.1,0.4,0.2,0.6,0.2c0.2,0,0.3,0.1,0.5,0.1c0.1,0,0.3,0,0.3,0
					c0.1,0,0.2-0.1,0.2-0.1c0-0.1,0.1-0.1,0.1-0.2c0,0,0-0.1,0-0.1c0,0,0-0.1,0-0.1c0,0,0-0.1-0.1-0.1c0,0,0-0.1-0.1-0.1
					c0,0-0.1-0.1-0.2-0.1l-0.2-0.2c-0.2-0.1-0.3-0.3-0.4-0.3c-0.1-0.1-0.2-0.2-0.3-0.3c-0.1-0.1-0.1-0.2-0.2-0.3
					c0-0.1-0.1-0.2-0.1-0.3c0-0.2,0.1-0.3,0.2-0.5c0.1-0.2,0.3-0.3,0.5-0.4c0.2-0.1,0.4-0.1,0.7-0.1c0.3,0,0.7,0,1.1,0.1l0,0.8
					c-0.3-0.1-0.6-0.2-0.8-0.2c-0.1,0-0.3,0-0.4,0c-0.1,0-0.2,0.1-0.2,0.1c0,0.1-0.1,0.1-0.1,0.2c0,0,0,0.1,0,0.1c0,0,0,0.1,0.1,0.1
					c0,0,0.1,0.1,0.1,0.1c0,0,0.1,0.1,0.3,0.2c0.1,0.1,0.3,0.2,0.4,0.3c0.1,0.1,0.2,0.2,0.3,0.3c0.1,0.1,0.1,0.2,0.2,0.3
					c0,0.1,0.1,0.2,0.1,0.3c0,0.2-0.1,0.3-0.2,0.5c-0.1,0.2-0.3,0.3-0.5,0.4c-0.2,0.1-0.5,0.1-0.8,0.1c-0.1,0-0.3,0-0.5,0
					C175.4,38,175.2,38,175,37.9z"/>
			</g>
		</g>
		<path class="st1" d="M175.3,30.1v-0.8c0.2,0.1,0.4,0.3,0.6,0.4c0.2,0.1,0.4,0.1,0.6,0.1c0.2,0,0.3,0,0.4-0.1
			c0.1-0.1,0.2-0.2,0.2-0.3c0-0.1,0-0.2-0.1-0.3c-0.1-0.1-0.2-0.2-0.5-0.3c-0.5-0.3-0.8-0.5-0.9-0.7c-0.1-0.2-0.2-0.4-0.2-0.6
			c0-0.3,0.1-0.5,0.3-0.7c0.2-0.2,0.5-0.3,0.9-0.3c0.4,0,0.7,0.1,1.1,0.3v0.7c-0.4-0.3-0.8-0.4-1.1-0.4c-0.1,0-0.3,0-0.3,0.1
			c-0.1,0.1-0.1,0.1-0.1,0.2c0,0.1,0,0.2,0.1,0.3c0.1,0.1,0.2,0.2,0.4,0.3l0.3,0.2c0.6,0.4,0.9,0.7,0.9,1.2c0,0.3-0.1,0.6-0.4,0.8
			c-0.2,0.2-0.6,0.3-0.9,0.3c-0.2,0-0.4,0-0.6-0.1C175.8,30.3,175.6,30.2,175.3,30.1 M172.6,27.3c-0.4,0-0.6,0.1-0.9,0.4
			c-0.2,0.2-0.3,0.5-0.3,0.9c0,0.4,0.1,0.7,0.4,0.9c0.2,0.2,0.5,0.3,0.9,0.3c0.4,0,0.7-0.1,0.9-0.3c0.2-0.2,0.4-0.5,0.4-0.9
			c0-0.4-0.1-0.7-0.4-0.9C173.3,27.4,173,27.3,172.6,27.3z M172.7,26.6c0.6,0,1,0.2,1.4,0.6c0.4,0.4,0.6,0.8,0.6,1.4
			c0,0.5-0.2,1-0.6,1.4c-0.4,0.4-0.9,0.5-1.5,0.5c-0.6,0-1-0.2-1.4-0.5c-0.4-0.4-0.6-0.8-0.6-1.4c0-0.6,0.2-1,0.6-1.4
			C171.6,26.8,172.1,26.6,172.7,26.6z M169.1,26.6h0.7v3.8h-0.7V26.6z M169.4,25c0.1,0,0.2,0,0.3,0.1c0.1,0.1,0.1,0.2,0.1,0.3
			c0,0.1,0,0.2-0.1,0.3c-0.1,0.1-0.2,0.1-0.3,0.1c-0.1,0-0.2,0-0.3-0.1c-0.1-0.1-0.1-0.2-0.1-0.3c0-0.1,0-0.2,0.1-0.3
			C169.2,25.1,169.3,25,169.4,25z M164.7,25.4h-1v4.2h1c0.4,0,0.7,0,1-0.1c0.2-0.1,0.4-0.1,0.6-0.2c0.2-0.1,0.3-0.2,0.4-0.3
			c0.4-0.4,0.6-0.9,0.6-1.5c0-0.6-0.2-1.1-0.6-1.5c-0.2-0.1-0.3-0.3-0.5-0.4c-0.2-0.1-0.4-0.2-0.6-0.2
			C165.4,25.4,165.1,25.4,164.7,25.4z M162.9,30.4v-5.7h1.9c0.8,0,1.4,0.1,1.8,0.4c0.5,0.2,0.8,0.6,1.1,1c0.3,0.5,0.4,0.9,0.4,1.5
			c0,0.4-0.1,0.7-0.2,1.1c-0.1,0.3-0.4,0.7-0.6,0.9c-0.3,0.3-0.6,0.5-1,0.6c-0.2,0.1-0.4,0.1-0.6,0.2c-0.2,0-0.5,0-1,0H162.9z
			 M157,28.1h1.9c0-0.3-0.1-0.5-0.3-0.7c-0.2-0.2-0.4-0.2-0.6-0.2c-0.3,0-0.5,0.1-0.7,0.2C157.2,27.6,157.1,27.8,157,28.1z
			 M159.6,28.6H157c0,0.4,0.1,0.6,0.4,0.9c0.2,0.2,0.5,0.3,0.9,0.3c0.5,0,0.9-0.2,1.4-0.5V30c-0.2,0.2-0.5,0.3-0.7,0.3
			c-0.2,0.1-0.5,0.1-0.8,0.1c-0.4,0-0.7-0.1-1-0.3c-0.3-0.2-0.5-0.4-0.6-0.7c-0.2-0.3-0.2-0.6-0.2-1c0-0.6,0.2-1,0.5-1.4
			c0.3-0.4,0.7-0.5,1.3-0.5c0.5,0,0.9,0.2,1.2,0.5C159.5,27.4,159.6,27.9,159.6,28.6L159.6,28.6z M154.7,29.7v-2.4
			c-0.2-0.1-0.5-0.2-0.7-0.2c-0.4,0-0.7,0.1-0.9,0.4c-0.2,0.2-0.3,0.6-0.3,1c0,0.4,0.1,0.7,0.3,0.9c0.1,0.1,0.2,0.2,0.4,0.3
			c0.1,0,0.4,0.1,0.7,0.1H154.7z M154.7,24.7h0.7v5.7h-1.6c-0.6,0-1-0.2-1.3-0.5c-0.3-0.4-0.5-0.8-0.5-1.4c0-0.6,0.2-1,0.5-1.4
			c0.3-0.4,0.8-0.5,1.3-0.5c0.2,0,0.5,0.1,0.8,0.2V24.7z M147,27.3c-0.4,0-0.6,0.1-0.9,0.4c-0.2,0.2-0.3,0.5-0.3,0.9
			c0,0.4,0.1,0.7,0.4,0.9c0.2,0.2,0.5,0.3,0.9,0.3c0.4,0,0.7-0.1,0.9-0.3c0.2-0.2,0.4-0.5,0.4-0.9c0-0.4-0.1-0.7-0.4-0.9
			C147.6,27.4,147.3,27.3,147,27.3z M147,26.6c0.6,0,1,0.2,1.4,0.6c0.4,0.4,0.6,0.8,0.6,1.4c0,0.5-0.2,1-0.6,1.4
			c-0.4,0.4-0.9,0.5-1.4,0.5c-0.6,0-1-0.2-1.4-0.5c-0.4-0.4-0.6-0.8-0.6-1.4c0-0.6,0.2-1,0.6-1.4C146,26.8,146.4,26.6,147,26.6z
			 M141.9,27.2l1.4-1.4v0.8h1.2v0.7h-1.2v1.8c0,0.4,0.2,0.6,0.5,0.6c0.3,0,0.5-0.1,0.8-0.3v0.7c-0.3,0.2-0.6,0.2-0.9,0.2
			c-0.3,0-0.6-0.1-0.9-0.3c-0.1-0.1-0.1-0.1-0.2-0.2c0-0.1-0.1-0.2-0.1-0.3c0-0.1,0-0.4,0-0.7v-1.7L141.9,27.2L141.9,27.2z
			 M140.6,30.4v-0.5c-0.2,0.2-0.3,0.3-0.5,0.4c-0.2,0.1-0.4,0.1-0.6,0.1c-0.2,0-0.5-0.1-0.7-0.2c-0.2-0.1-0.4-0.3-0.5-0.5
			c-0.1-0.2-0.2-0.5-0.2-1v-2.2h0.7v2.1c0,0.4,0.1,0.7,0.2,0.8c0.1,0.2,0.3,0.2,0.6,0.2c0.4,0,0.7-0.2,0.9-0.5v-2.7h0.7v3.8H140.6z
			 M134.9,26.6v0.5c0.3-0.4,0.7-0.6,1.1-0.6c0.2,0,0.5,0.1,0.7,0.2c0.2,0.1,0.4,0.3,0.5,0.5c0.1,0.2,0.2,0.5,0.2,1v2.1h-0.7v-2.1
			c0-0.4-0.1-0.7-0.2-0.8c-0.1-0.2-0.3-0.2-0.6-0.2c-0.4,0-0.6,0.2-0.9,0.5v2.7h-0.8v-3.8H134.9z M132.3,26.6h0.7v3.8h-0.7V26.6z
			 M132.7,25c0.1,0,0.2,0,0.3,0.1c0.1,0.1,0.1,0.2,0.1,0.3c0,0.1,0,0.2-0.1,0.3c-0.1,0.1-0.2,0.1-0.3,0.1c-0.1,0-0.2,0-0.3-0.1
			c-0.1-0.1-0.1-0.2-0.1-0.3c0-0.1,0-0.2,0.1-0.3C132.5,25.1,132.6,25,132.7,25z M130.4,24.7h0.8v5.7h-0.8v-4.4l-1.8,2.2h-0.2
			l-1.8-2.2v4.4h-0.8v-5.7h0.8l1.9,2.3L130.4,24.7z M121.5,29.6v-1.1l-0.5,0.2c-0.3,0.1-0.4,0.2-0.5,0.3c-0.1,0.1-0.2,0.2-0.2,0.4
			c0,0.2,0,0.3,0.1,0.4c0.1,0.1,0.2,0.1,0.4,0.1C121.1,29.9,121.3,29.8,121.5,29.6z M122.2,28.1v1.6c0,0.1,0,0.2,0.1,0.2
			c0.1,0,0.2-0.1,0.4-0.2v0.5c-0.2,0.1-0.3,0.2-0.4,0.2c-0.1,0-0.2,0.1-0.3,0.1c-0.3,0-0.5-0.1-0.6-0.4c-0.3,0.2-0.7,0.4-1,0.4
			c-0.3,0-0.5-0.1-0.7-0.3c-0.2-0.2-0.3-0.4-0.3-0.7c0-0.2,0.1-0.4,0.3-0.6c0.2-0.2,0.4-0.3,0.7-0.4l1-0.3v-0.2
			c0-0.5-0.2-0.7-0.7-0.7c-0.4,0-0.8,0.2-1.2,0.6V27c0.3-0.3,0.7-0.5,1.2-0.5c0.4,0,0.7,0.1,1,0.3c0.1,0.1,0.2,0.2,0.2,0.3
			c0.1,0.1,0.1,0.2,0.1,0.3C122.2,27.6,122.2,27.8,122.2,28.1z M118.1,26.6h0.7v3.8h-0.7V26.6z M118.4,25c0.1,0,0.2,0,0.3,0.1
			c0.1,0.1,0.1,0.2,0.1,0.3c0,0.1,0,0.2-0.1,0.3c-0.1,0.1-0.2,0.1-0.3,0.1c-0.1,0-0.2,0-0.3-0.1c-0.1-0.1-0.1-0.2-0.1-0.3
			c0-0.1,0-0.2,0.1-0.3C118.2,25.1,118.3,25,118.4,25z M115.5,26.6v0.9l0-0.1c0.4-0.6,0.7-0.9,1.1-0.9c0.3,0,0.6,0.1,0.9,0.4
			l-0.4,0.7c-0.3-0.2-0.5-0.4-0.7-0.4c-0.2,0-0.4,0.1-0.6,0.3c-0.2,0.2-0.3,0.5-0.3,0.8v2h-0.7v-3.8H115.5z M112.8,29.6v-1.1
			l-0.5,0.2c-0.3,0.1-0.4,0.2-0.5,0.3c-0.1,0.1-0.2,0.2-0.2,0.4c0,0.2,0,0.3,0.1,0.4c0.1,0.1,0.2,0.1,0.4,0.1
			C112.4,29.9,112.6,29.8,112.8,29.6z M113.5,28.1v1.6c0,0.1,0,0.2,0.1,0.2c0.1,0,0.2-0.1,0.4-0.2v0.5c-0.2,0.1-0.3,0.2-0.4,0.2
			c-0.1,0-0.2,0.1-0.3,0.1c-0.3,0-0.5-0.1-0.6-0.4c-0.3,0.2-0.7,0.4-1,0.4c-0.3,0-0.5-0.1-0.7-0.3c-0.2-0.2-0.3-0.4-0.3-0.7
			c0-0.2,0.1-0.4,0.3-0.6c0.2-0.2,0.4-0.3,0.7-0.4l1-0.3v-0.2c0-0.5-0.2-0.7-0.7-0.7c-0.4,0-0.8,0.2-1.2,0.6V27
			c0.3-0.3,0.7-0.5,1.2-0.5c0.4,0,0.7,0.1,1,0.3c0.1,0.1,0.2,0.2,0.2,0.3c0.1,0.1,0.1,0.2,0.1,0.3C113.5,27.6,113.5,27.8,113.5,28.1
			z M107.8,27.2l1.4-1.4v0.8h1.2v0.7h-1.2v1.8c0,0.4,0.2,0.6,0.5,0.6c0.3,0,0.5-0.1,0.8-0.3v0.7c-0.3,0.2-0.6,0.2-0.9,0.2
			c-0.3,0-0.6-0.1-0.8-0.3c-0.1-0.1-0.1-0.1-0.2-0.2c0-0.1-0.1-0.2-0.1-0.3c0-0.1,0-0.4,0-0.7v-1.7L107.8,27.2L107.8,27.2z
			 M106.5,26.6h0.7v3.8h-0.7V26.6z M106.9,25c0.1,0,0.2,0,0.3,0.1c0.1,0.1,0.1,0.2,0.1,0.3c0,0.1,0,0.2-0.1,0.3
			c-0.1,0.1-0.2,0.1-0.3,0.1c-0.1,0-0.2,0-0.3-0.1c-0.1-0.1-0.1-0.2-0.1-0.3c0-0.1,0-0.2,0.1-0.3C106.7,25.1,106.8,25,106.9,25z
			 M103.1,30.1v-0.8c0.2,0.1,0.4,0.3,0.6,0.4c0.2,0.1,0.4,0.1,0.6,0.1c0.2,0,0.3,0,0.4-0.1c0.1-0.1,0.2-0.2,0.2-0.3
			c0-0.1,0-0.2-0.1-0.3c-0.1-0.1-0.2-0.2-0.5-0.3c-0.5-0.3-0.8-0.5-0.9-0.7c-0.1-0.2-0.2-0.4-0.2-0.6c0-0.3,0.1-0.5,0.3-0.7
			c0.2-0.2,0.5-0.3,0.9-0.3c0.4,0,0.7,0.1,1.1,0.3v0.7c-0.4-0.3-0.8-0.4-1.1-0.4c-0.1,0-0.3,0-0.3,0.1c-0.1,0.1-0.1,0.1-0.1,0.2
			c0,0.1,0,0.2,0.1,0.3c0.1,0.1,0.2,0.2,0.4,0.3l0.3,0.2c0.6,0.4,0.9,0.7,0.9,1.2c0,0.3-0.1,0.6-0.4,0.8c-0.2,0.2-0.6,0.3-0.9,0.3
			c-0.2,0-0.4,0-0.6-0.1C103.6,30.3,103.4,30.2,103.1,30.1z M100.8,26.6v0.9l0-0.1c0.4-0.6,0.7-0.9,1.1-0.9c0.3,0,0.6,0.1,0.9,0.4
			l-0.4,0.7c-0.3-0.2-0.5-0.4-0.7-0.4c-0.2,0-0.4,0.1-0.6,0.3c-0.2,0.2-0.3,0.5-0.3,0.8v2H100v-3.8H100.8z M96.6,28.1h1.9
			c0-0.3-0.1-0.5-0.3-0.7c-0.2-0.2-0.4-0.2-0.6-0.2c-0.3,0-0.5,0.1-0.7,0.2C96.7,27.6,96.6,27.8,96.6,28.1z M99.2,28.6h-2.6
			c0,0.4,0.1,0.6,0.4,0.9c0.2,0.2,0.5,0.3,0.9,0.3c0.5,0,0.9-0.2,1.4-0.5V30c-0.2,0.2-0.5,0.3-0.7,0.3c-0.2,0.1-0.5,0.1-0.8,0.1
			c-0.4,0-0.7-0.1-1-0.3c-0.3-0.2-0.5-0.4-0.6-0.7c-0.2-0.3-0.2-0.6-0.2-1c0-0.6,0.2-1,0.5-1.4c0.3-0.4,0.7-0.5,1.3-0.5
			c0.5,0,0.9,0.2,1.2,0.5C99,27.4,99.2,27.9,99.2,28.6L99.2,28.6z M94.8,26.6h0.8l-1.7,3.8h-0.2L92,26.6h0.8l1,2.3L94.8,26.6z
			 M90.7,26.6h0.7v3.8h-0.7V26.6z M91,25c0.1,0,0.2,0,0.3,0.1c0.1,0.1,0.1,0.2,0.1,0.3c0,0.1,0,0.2-0.1,0.3
			c-0.1,0.1-0.2,0.1-0.3,0.1c-0.1,0-0.2,0-0.3-0.1c-0.1-0.1-0.1-0.2-0.1-0.3c0-0.1,0-0.2,0.1-0.3C90.8,25.1,90.9,25,91,25z
			 M87.2,26.6v0.5c0.3-0.4,0.7-0.6,1.1-0.6c0.2,0,0.5,0.1,0.7,0.2c0.2,0.1,0.4,0.3,0.5,0.5c0.1,0.2,0.2,0.5,0.2,1v2.1h-0.7v-2.1
			c0-0.4-0.1-0.7-0.2-0.8c-0.1-0.2-0.3-0.2-0.6-0.2c-0.4,0-0.6,0.2-0.9,0.5v2.7h-0.8v-3.8H87.2z M84.6,24.7h0.8v3.2
			c0,0.4,0,0.8-0.1,1c-0.1,0.2-0.1,0.4-0.2,0.6c-0.1,0.1-0.2,0.3-0.3,0.4c-0.5,0.4-1,0.6-1.8,0.6c-0.7,0-1.3-0.2-1.8-0.6
			c-0.1-0.1-0.3-0.3-0.3-0.4c-0.1-0.1-0.2-0.3-0.2-0.5c-0.1-0.2-0.1-0.6-0.1-1v-3.2h0.8v3.2c0,0.5,0.1,0.9,0.2,1.1
			c0.1,0.2,0.3,0.4,0.6,0.5c0.3,0.1,0.5,0.2,0.9,0.2c0.5,0,0.9-0.1,1.2-0.4c0.2-0.1,0.3-0.3,0.3-0.5c0.1-0.2,0.1-0.5,0.1-1V24.7z
			 M74.8,26.6v0.5c0.3-0.4,0.7-0.6,1.1-0.6c0.2,0,0.5,0.1,0.7,0.2c0.2,0.1,0.4,0.3,0.5,0.5c0.1,0.2,0.2,0.5,0.2,1v2.1h-0.7v-2.1
			c0-0.4-0.1-0.7-0.2-0.8c-0.1-0.2-0.3-0.2-0.6-0.2c-0.4,0-0.6,0.2-0.9,0.5v2.7H74v-3.8H74.8z M72,24.6l-0.9,1.2h-0.5l0.6-1.2H72z
			 M71.2,27.3c-0.4,0-0.6,0.1-0.9,0.4c-0.2,0.2-0.3,0.5-0.3,0.9c0,0.4,0.1,0.7,0.4,0.9c0.2,0.2,0.5,0.3,0.9,0.3
			c0.4,0,0.7-0.1,0.9-0.3c0.2-0.2,0.4-0.5,0.4-0.9c0-0.4-0.1-0.7-0.4-0.9C71.8,27.4,71.5,27.3,71.2,27.3z M71.2,26.6
			c0.6,0,1,0.2,1.4,0.6c0.4,0.4,0.6,0.8,0.6,1.4c0,0.5-0.2,1-0.6,1.4c-0.4,0.4-0.9,0.5-1.5,0.5c-0.6,0-1-0.2-1.4-0.5
			c-0.4-0.4-0.6-0.8-0.6-1.4c0-0.6,0.2-1,0.6-1.4C70.2,26.8,70.6,26.6,71.2,26.6z M67.6,26.6h0.7v3.8h-0.7V26.6z M68,25
			c0.1,0,0.2,0,0.3,0.1c0.1,0.1,0.1,0.2,0.1,0.3c0,0.1,0,0.2-0.1,0.3c-0.1,0.1-0.2,0.1-0.3,0.1c-0.1,0-0.2,0-0.3-0.1
			c-0.1-0.1-0.1-0.2-0.1-0.3c0-0.1,0-0.2,0.1-0.3C67.8,25.1,67.9,25,68,25z M66.7,29.5v0.7c-0.4,0.1-0.7,0.2-1.1,0.2
			c-0.6,0-1.1-0.2-1.4-0.5c-0.4-0.3-0.5-0.8-0.5-1.4c0-0.6,0.2-1.1,0.5-1.4c0.3-0.4,0.8-0.5,1.3-0.5c0.2,0,0.4,0,0.5,0.1
			c0.2,0,0.3,0.1,0.6,0.2v0.8c-0.4-0.2-0.7-0.4-1-0.4c-0.3,0-0.6,0.1-0.8,0.4c-0.2,0.2-0.3,0.5-0.3,0.9c0,0.4,0.1,0.7,0.3,0.9
			c0.2,0.2,0.5,0.3,0.9,0.3C66,29.7,66.4,29.7,66.7,29.5z M62,29.6v-1.1l-0.5,0.2c-0.3,0.1-0.4,0.2-0.5,0.3
			c-0.1,0.1-0.2,0.2-0.2,0.4c0,0.2,0.1,0.3,0.2,0.4c0.1,0.1,0.2,0.1,0.4,0.1C61.6,29.9,61.8,29.8,62,29.6z M62.7,28.1v1.6
			c0,0.1,0,0.2,0.1,0.2c0.1,0,0.2-0.1,0.4-0.2v0.5c-0.2,0.1-0.3,0.2-0.4,0.2c-0.1,0-0.2,0.1-0.3,0.1c-0.3,0-0.5-0.1-0.6-0.4
			c-0.3,0.2-0.7,0.4-1,0.4c-0.3,0-0.5-0.1-0.7-0.3C60.1,30,60,29.8,60,29.5c0-0.2,0.1-0.4,0.3-0.6c0.2-0.2,0.4-0.3,0.7-0.4l1-0.3
			v-0.2c0-0.5-0.2-0.7-0.7-0.7c-0.4,0-0.8,0.2-1.2,0.6V27c0.3-0.3,0.7-0.5,1.2-0.5c0.4,0,0.7,0.1,1,0.3c0.1,0.1,0.2,0.2,0.2,0.3
			c0.1,0.1,0.1,0.2,0.1,0.3C62.7,27.6,62.7,27.8,62.7,28.1z M57.8,26.6v0.9l0-0.1c0.4-0.6,0.7-0.9,1.1-0.9c0.3,0,0.6,0.1,0.9,0.4
			l-0.4,0.7c-0.3-0.2-0.5-0.4-0.7-0.4c-0.2,0-0.4,0.1-0.6,0.3c-0.2,0.2-0.3,0.5-0.3,0.8v2h-0.7v-3.8H57.8z M54.2,27.3
			c-0.4,0-0.6,0.1-0.9,0.4c-0.2,0.2-0.3,0.5-0.3,0.9c0,0.4,0.1,0.7,0.4,0.9c0.2,0.2,0.5,0.3,0.9,0.3c0.4,0,0.7-0.1,0.9-0.3
			c0.2-0.2,0.4-0.5,0.4-0.9c0-0.4-0.1-0.7-0.4-0.9C54.8,27.4,54.5,27.3,54.2,27.3z M54.2,26.6c0.6,0,1,0.2,1.4,0.6
			c0.4,0.4,0.6,0.8,0.6,1.4c0,0.5-0.2,1-0.6,1.4c-0.4,0.4-0.9,0.5-1.4,0.5c-0.6,0-1-0.2-1.4-0.5c-0.4-0.4-0.6-0.8-0.6-1.4
			c0-0.6,0.2-1,0.6-1.4C53.2,26.8,53.6,26.6,54.2,26.6z M49.5,27.3h-0.5v2.3c0.2,0.1,0.5,0.2,0.7,0.2c0.4,0,0.6-0.1,0.9-0.4
			c0.2-0.2,0.3-0.6,0.3-0.9c0-0.2-0.1-0.5-0.2-0.7c-0.1-0.2-0.2-0.3-0.4-0.4C50.1,27.3,49.8,27.3,49.5,27.3z M48.2,32.3v-5.7h1.3
			c0.7,0,1.2,0.2,1.6,0.5c0.4,0.3,0.6,0.8,0.6,1.4c0,0.6-0.2,1-0.5,1.4c-0.3,0.4-0.8,0.5-1.3,0.5c-0.2,0-0.5-0.1-0.8-0.2v2H48.2z
			 M45.7,26.6v0.9l0-0.1c0.4-0.6,0.7-0.9,1.1-0.9c0.3,0,0.6,0.1,0.9,0.4l-0.4,0.7c-0.3-0.2-0.5-0.4-0.7-0.4c-0.2,0-0.4,0.1-0.6,0.3
			c-0.2,0.2-0.3,0.5-0.3,0.8v2H45v-3.8H45.7z M42.1,27.3c-0.4,0-0.6,0.1-0.9,0.4c-0.2,0.2-0.3,0.5-0.3,0.9c0,0.4,0.1,0.7,0.4,0.9
			c0.2,0.2,0.5,0.3,0.9,0.3c0.4,0,0.7-0.1,0.9-0.3c0.2-0.2,0.4-0.5,0.4-0.9c0-0.4-0.1-0.7-0.4-0.9C42.7,27.4,42.4,27.3,42.1,27.3z
			 M42.1,26.6c0.6,0,1,0.2,1.4,0.6c0.4,0.4,0.6,0.8,0.6,1.4c0,0.5-0.2,1-0.6,1.4c-0.4,0.4-0.9,0.5-1.5,0.5c-0.6,0-1-0.2-1.4-0.5
			c-0.4-0.4-0.6-0.8-0.6-1.4c0-0.6,0.2-1,0.6-1.4C41,26.8,41.5,26.6,42.1,26.6z M39.4,29v0.9c-0.6,0.3-1.3,0.5-2.1,0.5
			c-0.6,0-1.2-0.1-1.6-0.4c-0.4-0.3-0.8-0.6-1.1-1.1c-0.3-0.5-0.4-0.9-0.4-1.5c0-0.8,0.3-1.5,0.9-2.1c0.6-0.6,1.3-0.9,2.2-0.9
			c0.6,0,1.3,0.2,2,0.5v0.9c-0.7-0.4-1.3-0.6-2-0.6c-0.7,0-1.2,0.2-1.6,0.6c-0.4,0.4-0.6,0.9-0.6,1.6c0,0.6,0.2,1.1,0.6,1.5
			c0.4,0.4,1,0.6,1.6,0.6C38.1,29.7,38.7,29.5,39.4,29z M169,20.8c1.3,0,2.3-0.2,3.1-0.7c0.8-0.5,1.2-1,1.2-1.7
			c0-0.7-0.4-1.3-1.2-1.7c-0.8-0.5-1.9-0.7-3.1-0.7c-1.3,0-2.3,0.2-3.1,0.7c-0.8,0.5-1.2,1-1.2,1.7c0,0.7,0.4,1.3,1.2,1.7
			C166.7,20.6,167.7,20.8,169,20.8z M177.9,18.4c0,0.6-0.2,1.2-0.7,1.7c-0.4,0.5-1.1,1-1.9,1.4c-0.8,0.4-1.8,0.7-2.9,0.9
			c-1.1,0.2-2.2,0.3-3.4,0.3c-1.2,0-2.3-0.1-3.4-0.3c-1.1-0.2-2-0.5-2.9-0.9c-0.9-0.4-1.5-0.9-1.9-1.4c-0.4-0.5-0.7-1.1-0.7-1.7
			c0-0.6,0.2-1.1,0.7-1.7c0.4-0.5,1.1-1,1.9-1.4c0.8-0.4,1.8-0.7,2.9-0.9c1.1-0.2,2.2-0.3,3.4-0.3c1.2,0,2.3,0.1,3.4,0.3
			c1.1,0.2,2.1,0.5,2.9,0.9c0.8,0.4,1.5,0.9,1.9,1.4C177.6,17.2,177.9,17.8,177.9,18.4z M150.8,22.5v-6.3h-3.7v-2H159v2h-3.7v6.3
			H150.8z M130.2,14.2h4.5v4c0,0.6,0,1,0.1,1.3c0.1,0.3,0.2,0.5,0.3,0.6c0.2,0.2,0.5,0.4,0.9,0.5c0.4,0.1,1,0.2,1.6,0.2
			c0.6,0,1.1-0.1,1.6-0.2c0.4-0.1,0.7-0.3,0.9-0.5c0.1-0.2,0.2-0.4,0.3-0.6c0.1-0.3,0.1-0.7,0.1-1.3v-0.6v-3.5h4.5v4.4
			c0,0.9-0.1,1.6-0.3,2c-0.2,0.4-0.6,0.8-1.1,1.1c-0.6,0.3-1.3,0.6-2.3,0.8c-1,0.2-2.2,0.3-3.6,0.3c-1.4,0-2.6-0.1-3.6-0.3
			c-1-0.2-1.8-0.4-2.3-0.8c-0.5-0.3-0.9-0.7-1.1-1.1c-0.2-0.4-0.3-1.1-0.3-2v-0.9V14.2z M110.6,22.5v-8.3h4.4l6.3,4.3
			c0.1,0.1,0.3,0.3,0.6,0.5c0.3,0.3,0.6,0.6,0.9,0.9c-0.1-0.3-0.2-0.6-0.2-0.9c0-0.3-0.1-0.5-0.1-0.7v-4.1h4.3v8.3h-4.3l-6.3-4.3
			c-0.1-0.1-0.3-0.3-0.6-0.5c-0.3-0.3-0.6-0.6-0.9-0.9c0.1,0.3,0.2,0.7,0.2,0.9c0,0.3,0.1,0.5,0.1,0.7v4.1H110.6z M102.4,22.5v-8.3
			h4.6v8.3H102.4z M99.8,22.5h-4.2l-1-3.6c-0.1-0.3-0.1-0.5-0.2-0.8c-0.1-0.3-0.1-0.6-0.2-1c-0.1,0.3-0.3,0.8-0.6,1.3
			c-0.1,0.1-0.1,0.2-0.1,0.2l-2.3,3.9h-3L86,18.6c0-0.1-0.1-0.1-0.1-0.2c-0.3-0.5-0.5-1-0.6-1.3c0,0.3-0.1,0.6-0.2,0.9
			c-0.1,0.3-0.1,0.6-0.2,0.9l-1,3.6h-4.2l2.6-8.3h4.5l2.5,4.3c0,0,0,0.1,0.1,0.1c0.2,0.4,0.4,0.7,0.4,1c0-0.1,0.1-0.3,0.2-0.5
			c0.1-0.2,0.2-0.4,0.3-0.6l2.5-4.3h4.5L99.8,22.5z M72.6,22.5v-8.3h4.6v8.3H72.6z M52.7,22.5v-8.3h4.4l6.3,4.3
			c0.1,0.1,0.3,0.3,0.6,0.5c0.3,0.3,0.6,0.6,0.9,0.9c-0.1-0.3-0.2-0.6-0.2-0.9c0-0.3-0.1-0.5-0.1-0.7v-4.1h4.3v8.3h-4.3l-6.3-4.3
			c-0.1-0.1-0.3-0.3-0.6-0.5c-0.3-0.3-0.6-0.6-0.9-0.9c0.1,0.3,0.2,0.7,0.2,0.9c0,0.3,0.1,0.5,0.1,0.7v4.1H52.7z M34.4,14.3h4.5v4
			c0,0.6,0,1,0.1,1.3c0.1,0.3,0.2,0.5,0.3,0.6c0.2,0.2,0.5,0.4,0.9,0.5c0.4,0.1,1,0.2,1.6,0.2c0.6,0,1.1-0.1,1.6-0.2
			c0.4-0.1,0.7-0.3,0.9-0.5c0.1-0.2,0.3-0.4,0.3-0.6c0.1-0.3,0.1-0.7,0.1-1.3v-0.6v-3.5h4.5v4.4c0,0.9-0.1,1.6-0.3,2
			c-0.2,0.4-0.6,0.8-1.1,1.1c-0.6,0.3-1.3,0.6-2.3,0.8c-1,0.2-2.2,0.3-3.6,0.3c-1.4,0-2.6-0.1-3.6-0.3c-1-0.2-1.8-0.4-2.3-0.8
			c-0.5-0.3-0.9-0.7-1.1-1.1c-0.2-0.4-0.3-1.1-0.3-2v-0.9V14.3z"/>
		<path class="st2" d="M21.7,18.7v7.1h1c0.9,0,1.5-0.1,1.9-0.3c0.4-0.2,0.7-0.5,0.9-1c0.2-0.5,0.3-1.2,0.3-2.3
			c0-1.4-0.2-2.3-0.7-2.8c-0.5-0.5-1.3-0.8-2.4-0.8H21.7z M17.4,15.8h6.3c1.2,0,2.3,0.2,3,0.5c0.8,0.3,1.4,0.8,1.9,1.4
			c0.5,0.6,0.9,1.3,1.1,2.1c0.2,0.8,0.3,1.6,0.3,2.5c0,1.4-0.2,2.5-0.5,3.2c-0.3,0.8-0.8,1.4-1.4,1.9c-0.6,0.5-1.2,0.9-1.9,1
			c-0.9,0.2-1.8,0.4-2.5,0.4h-6.3V15.8z M2.1,15.8h4.5l3.4,2.7l3.6-2.7h4v13h-4.3v-7.3l-3.4,3.9l-0.2,0.1l-3-3.7v7.1H2.1V15.8z"/>
		<path class="st3" d="M22.3,18.1v7.1h1c0.9,0,1.5-0.1,1.9-0.3c0.4-0.2,0.7-0.5,0.9-1c0.2-0.5,0.3-1.2,0.3-2.3
			c0-1.4-0.2-2.3-0.7-2.8c-0.5-0.5-1.3-0.8-2.4-0.8H22.3z M18.1,15.1h6.3c1.2,0,2.3,0.2,3,0.5c0.8,0.3,1.4,0.8,1.9,1.4
			c0.5,0.6,0.9,1.3,1.1,2.1c0.2,0.8,0.3,1.6,0.3,2.5c0,1.4-0.2,2.5-0.5,3.2c-0.3,0.8-0.8,1.4-1.4,1.9c-0.6,0.5-1.2,0.9-1.9,1
			c-0.9,0.2-1.8,0.4-2.5,0.4h-6.3V15.1z M2.8,15.1h4.5l3.4,2.7l3.6-2.7h4v13h-4.3v-7.3l-3.4,3.9l-0.2,0.1l-3-3.7v7.1H2.8V15.1z"/>
		<polygon class="st2" points="15.5,2.9 15.9,3.7 16.5,4.2 17,5.2 16.8,6.8 17.1,12.6 18.1,12.5 18.7,11.6 19.6,11 20.2,10.6 
			21.1,10.6 21.9,10.1 22.9,9.3 23.8,8.7 24.7,8.2 25.9,7.2 26.6,6.4 27.8,5.9 28.7,5.2 29.6,5.8 29.6,6.8 28.9,7.3 27.3,8.4 
			25.4,9.7 24.6,10.6 23.4,10.8 22.8,11.5 21.7,12 21.1,12.5 19.9,13.4 18.6,14.3 17.4,15.1 17.3,17 17.3,19.5 17.3,22.2 17.8,25.6 
			18.2,28.3 18,30.4 18.3,32.5 18.8,35.5 18.8,36.2 18.7,37.7 18.9,41.1 18.4,43 18.8,43.8 16.8,43 16.3,42.2 16.9,34.9 16.5,32 
			16,30.1 16,26.8 15.4,24.9 15.4,22.1 15.3,16.9 15,15.9 13.4,16.5 12,17.4 11.4,18.6 9.8,19.6 7.7,20.6 5.9,21.8 4.2,23 3.2,23.4 
			2.4,23.4 2.1,22.9 2.1,22.1 3.6,21.3 5.6,20.2 7.3,18.9 8.6,17.7 10,16.4 10.6,16 11.2,15.2 12.4,14.4 13.3,13.9 15,13.4 
			14.6,5.6 14.3,4.1 		"/>
		<polygon class="st1" points="16.4,2.5 16.8,3.3 17.4,3.8 17.9,4.8 17.7,6.4 18,12.2 19,12.1 19.6,11.2 20.5,10.7 21.1,10.2 
			22,10.2 22.8,9.7 23.8,8.9 24.7,8.3 25.6,7.8 26.8,6.8 27.5,6 28.7,5.5 29.6,4.8 30.5,5.4 30.5,6.4 29.8,6.9 28.2,8 26.3,9.3 
			25.5,10.2 24.2,10.4 23.7,11.1 22.6,11.6 22,12.1 20.8,13 19.4,14 18.3,14.7 18.2,16.6 18.2,19.1 18.2,21.8 18.7,25.2 19.1,27.9 
			18.9,30 19.2,32.1 19.7,35.1 19.7,35.8 19.6,37.4 19.8,40.8 19.3,42.6 19.7,43.4 17.7,42.6 17.2,41.8 17.8,34.5 17.4,31.6 
			16.9,29.7 16.9,26.4 16.3,24.5 16.3,21.7 16.2,16.5 15.9,15.5 14.3,16.1 12.9,17 12.3,18.2 10.7,19.2 8.6,20.2 6.8,21.4 5,22.6 
			4,23 3.3,23 3,22.5 3,21.7 4.5,20.9 6.5,19.8 8.2,18.5 9.5,17.4 10.9,16 11.5,15.6 12.1,14.8 13.3,14.1 14.2,13.5 15.9,13 
			15.5,5.2 15.2,3.7 		"/>
		<path class="st4" d="M20,43.7l-2.4-1L17,41.8l0.6-7.4l-0.3-2.9l-0.6-1.9v-3.3l-0.6-2v-2.8L16,16.6l-0.3-0.8l-1.4,0.6L13,17.2
			l-0.6,1.1l-1.6,1.1l-2.1,1l-1.8,1.1l-1.8,1.2L4,23.2H3.2l-0.3-0.7v-0.9l1.5-0.9l2-1l1.6-1.3l1.3-1.1l1.3-1.3l0.7-0.4l0.6-0.8
			l2.1-1.2l1.6-0.5l-0.3-7.7L15,3.7l1.5-1.5l0.4,1l0.7,0.5l0.5,1l-0.2,1.7l0.3,5.6l0.8-0.1l0.5-0.9l0.9-0.5l0.7-0.4H22l0.7-0.5
			l1-0.8l0.9-0.6l0.9-0.5l1.2-0.9l0.7-0.8l1.2-0.5l1-0.8l1.1,0.7v1.2l-0.7,0.6l-1.7,1l-1.9,1.3l-0.8,1l-1.2,0.2l-0.6,0.6l-1.1,0.5
			l-0.5,0.5l-1.2,0.9l-1.3,0.9l-1.1,0.7l-0.1,1.9v5.1l0.4,3.4l0.4,2.7L19.1,30l0.3,2l0.4,3l0,0.7l-0.1,1.6l0.2,3.4l-0.4,1.8L20,43.7
			z M17.8,42.5l1.6,0.7l-0.2-0.5l0.5-1.9l-0.2-3.4l0.1-1.6v-0.7l-0.4-3L18.7,30l0.2-2.2l-0.4-2.7l-0.4-3.4v-5.2l0.1-2l1.2-0.8
			l1.3-0.9l1.2-0.9l0.6-0.5l1.1-0.5l0.6-0.6l1.2-0.2l0.8-0.9l1.9-1.3l1.7-1l0.6-0.5V5.5L29.6,5l-0.8,0.7l-1.2,0.5l-0.6,0.8l-1.3,1
			l-0.9,0.5L23.9,9l-1,0.8l-0.8,0.6h-0.9l-0.6,0.4l-0.9,0.5l-0.6,1l-1.3,0.1l-0.3-5.9l0.2-1.6L17.3,4l-0.7-0.5l-0.3-0.6l-1,1
			l0.3,1.4l0.3,8l-1.8,0.6l-2.1,1.2l-0.6,0.8l-0.7,0.4l-1.3,1.3l-1.4,1.1L6.6,20l-2,1l-1.4,0.8v0.7l0.2,0.4H4l1-0.4l1.8-1.2l1.8-1.1
			l2.1-1l1.5-1l0.6-1.1l1.5-1l1.8-0.7l0.4,1.2l0.1,5.2v2.8l0.6,2v3.3l0.6,1.8l0.3,2.9l-0.6,7.3L17.8,42.5z"/>
	</g>
	<g>
		<path class="st0" d="M119.9,41.2l-1.9,4.4h-0.6l-1.9-4.4h0.6l1.6,3.8l1.6-3.8H119.9z"/>
		<path class="st0" d="M120.9,41.2v0.5h-0.6v-0.5H120.9z M120.9,42.4v3.2h-0.6v-3.2H120.9z"/>
		<path class="st0" d="M124.4,45.6c0,0.8-0.5,1.2-1.5,1.2c-0.4,0-0.7-0.1-1.1-0.2v-0.5c0.3,0.1,0.7,0.2,1.1,0.2
			c0.6,0,0.9-0.2,0.9-0.7v-0.2c-0.2,0.1-0.5,0.2-0.8,0.2c-1,0-1.5-0.5-1.5-1.6c0-1.1,0.5-1.6,1.6-1.6c0.4,0,0.9,0,1.3,0.1V45.6z
			 M123.9,42.9c-0.2,0-0.4-0.1-0.7-0.1c-0.7,0-1,0.4-1,1.1c0,0.8,0.3,1.1,1,1.1c0.3,0,0.6-0.1,0.8-0.2V42.9z"/>
		<path class="st0" d="M125.8,41.2v0.5h-0.6v-0.5H125.8z M125.8,42.4v3.2h-0.6v-3.2H125.8z"/>
		<path class="st0" d="M127.2,41.2v4.4h-0.6v-4.4H127.2z"/>
		<path class="st0" d="M127.8,44.6c0-0.7,0.4-1,1.3-1c0.3,0,0.6,0,0.8,0.1v-0.3c0-0.3-0.3-0.5-0.9-0.5c-0.3,0-0.7,0.1-1,0.2v-0.5
			c0.3-0.1,0.7-0.2,1-0.2c1,0,1.4,0.3,1.4,1v2.2h-0.3l-0.2-0.2c-0.3,0.2-0.6,0.2-1,0.2C128.2,45.6,127.8,45.3,127.8,44.6z
			 M129.1,44.1c-0.5,0-0.7,0.2-0.7,0.5c0,0.4,0.2,0.6,0.6,0.6c0.4,0,0.7-0.1,0.9-0.3v-0.8C129.7,44.1,129.5,44.1,129.1,44.1z"/>
		<path class="st0" d="M134.1,45.4c-0.4,0.1-0.9,0.2-1.4,0.2c-1,0-1.4-0.6-1.4-1.7c0-1,0.5-1.5,1.5-1.5c0.3,0,0.5,0.1,0.8,0.2v-1.3
			h0.6V45.4z M133.5,43c-0.2-0.1-0.5-0.2-0.8-0.2c-0.6,0-1,0.3-1,1c0,0.8,0.3,1.2,1,1.2c0.3,0,0.6,0,0.8-0.1V43z"/>
		<path class="st0" d="M134.7,44.6c0-0.7,0.4-1,1.3-1c0.3,0,0.6,0,0.8,0.1v-0.3c0-0.3-0.3-0.5-0.9-0.5c-0.3,0-0.7,0.1-1,0.2v-0.5
			c0.3-0.1,0.7-0.2,1-0.2c1,0,1.4,0.3,1.4,1v2.2h-0.3l-0.2-0.2c-0.3,0.2-0.6,0.2-1,0.2C135.1,45.6,134.7,45.3,134.7,44.6z M136,44.1
			c-0.5,0-0.7,0.2-0.7,0.5c0,0.4,0.2,0.6,0.6,0.6c0.4,0,0.7-0.1,0.9-0.3v-0.8C136.6,44.1,136.4,44.1,136,44.1z"/>
		<path class="st0" d="M139.6,45.6v-4.4h0.7l1.6,3.7l1.6-3.7h0.7v4.4h-0.5v-3.5l-1.6,3.5h-0.4l-1.6-3.5v3.5H139.6z"/>
		<path class="st0" d="M145.6,41.2v0.5H145v-0.5H145.6z M145.6,42.4v3.2H145v-3.2H145.6z"/>
		<path class="st0" d="M146.4,45.6v-3.2h0.4l0.1,0.4c0.4-0.3,0.8-0.4,1.2-0.4c0.7,0,1.1,0.4,1.1,1.2v2h-0.6v-2
			c0-0.5-0.2-0.7-0.7-0.7c-0.3,0-0.6,0.1-0.9,0.4v2.3H146.4z"/>
		<path class="st0" d="M152.9,41.2v0.5h-2.3v1.5h2.2v0.5h-2.2v1.5h2.3v0.5H150v-4.4H152.9z"/>
		<path class="st0" d="M156.4,45.4c-0.4,0.1-0.9,0.2-1.4,0.2c-1,0-1.4-0.6-1.4-1.7c0-1,0.5-1.5,1.5-1.5c0.3,0,0.5,0.1,0.8,0.2v-1.3
			h0.6V45.4z M155.8,43c-0.2-0.1-0.5-0.2-0.8-0.2c-0.6,0-1,0.3-1,1c0,0.8,0.3,1.2,1,1.2c0.3,0,0.6,0,0.8-0.1V43z"/>
		<path class="st0" d="M159.9,42.4v3.2h-0.4l-0.1-0.4c-0.4,0.3-0.8,0.4-1.2,0.4c-0.7,0-1.1-0.4-1.1-1.2v-2h0.6v2
			c0,0.5,0.2,0.7,0.7,0.7c0.3,0,0.6-0.1,0.9-0.4v-2.3H159.9z"/>
		<path class="st0" d="M163.2,45.5c-0.3,0.1-0.6,0.1-0.9,0.1c-1.2,0-1.7-0.6-1.7-1.7c0-1,0.6-1.5,1.7-1.5c0.3,0,0.6,0,0.9,0.1v0.5
			c-0.3-0.1-0.5-0.1-0.8-0.1c-0.8,0-1.2,0.4-1.2,1.1c0,0.8,0.4,1.2,1.2,1.2c0.3,0,0.5,0,0.8-0.1V45.5z"/>
		<path class="st0" d="M163.6,44.6c0-0.7,0.4-1,1.3-1c0.3,0,0.6,0,0.8,0.1v-0.3c0-0.3-0.3-0.5-0.9-0.5c-0.3,0-0.7,0.1-1,0.2v-0.5
			c0.3-0.1,0.7-0.2,1-0.2c1,0,1.4,0.3,1.4,1v2.2H166l-0.2-0.2c-0.3,0.2-0.6,0.2-1,0.2C164,45.6,163.6,45.3,163.6,44.6z M164.9,44.1
			c-0.5,0-0.7,0.2-0.7,0.5c0,0.4,0.2,0.6,0.6,0.6c0.4,0,0.7-0.1,0.9-0.3v-0.8C165.5,44.1,165.3,44.1,164.9,44.1z"/>
		<path class="st0" d="M169.6,45.5c-0.3,0.1-0.6,0.1-0.9,0.1c-1.2,0-1.7-0.6-1.7-1.7c0-1,0.6-1.5,1.7-1.5c0.3,0,0.6,0,0.9,0.1v0.5
			c-0.3-0.1-0.5-0.1-0.8-0.1c-0.8,0-1.2,0.4-1.2,1.1c0,0.8,0.4,1.2,1.2,1.2c0.3,0,0.5,0,0.8-0.1V45.5z"/>
		<path class="st0" d="M170.7,41.2v0.5h-0.6v-0.5H170.7z M170.7,42.4v3.2h-0.6v-3.2H170.7z"/>
		<path class="st0" d="M171.4,44c0-1.1,0.5-1.6,1.5-1.6c1,0,1.5,0.5,1.5,1.6c0,1.1-0.5,1.6-1.5,1.6C171.9,45.6,171.4,45.1,171.4,44z
			 M172.9,45.2c0.6,0,1-0.4,1-1.2c0-0.8-0.3-1.1-1-1.1c-0.6,0-1,0.4-1,1.1C172,44.8,172.3,45.2,172.9,45.2z M173.5,41v0.5l-1.2,0.5
			v-0.5L173.5,41z"/>
		<path class="st0" d="M175.1,45.6v-3.2h0.4l0.1,0.4c0.4-0.3,0.8-0.4,1.2-0.4c0.7,0,1.1,0.4,1.1,1.2v2h-0.6v-2
			c0-0.5-0.2-0.7-0.7-0.7c-0.3,0-0.6,0.1-0.9,0.4v2.3H175.1z"/>
	</g>
</g>
</svg>
