<?xml version="1.0" encoding="utf-8"?>
<!-- Generator: Adobe Illustrator 24.3.0, SVG Export Plug-In . SVG Version: 6.00 Build 0)  -->
<svg version="1.1" id="Capa_1" xmlns="http://www.w3.org/2000/svg" xmlns:xlink="http://www.w3.org/1999/xlink" x="0px" y="0px"
	 viewBox="0 0 32.9 49" style="enable-background:new 0 0 32.9 49;" xml:space="preserve">
<style type="text/css">
	.st0{fill-rule:evenodd;clip-rule:evenodd;fill:#1D1D1B;}
	.st1{fill-rule:evenodd;clip-rule:evenodd;fill:#FFCD00;}
	.st2{fill-rule:evenodd;clip-rule:evenodd;fill:#FFFFFF;}
	.st3{fill:#1D1D1B;}
</style>
<g>
	<g>
		<path class="st0" d="M-40.8,14.7v7.1h1c0.9,0,1.5-0.1,1.9-0.3c0.4-0.2,0.7-0.5,0.9-1c0.2-0.5,0.3-1.2,0.3-2.3
			c0-1.4-0.2-2.3-0.7-2.8c-0.5-0.5-1.3-0.8-2.4-0.8H-40.8z M-45.1,11.7h6.3c1.2,0,2.3,0.2,3,0.5c0.8,0.3,1.4,0.8,1.9,1.4
			c0.5,0.6,0.9,1.3,1.1,2.1c0.2,0.8,0.3,1.6,0.3,2.5c0,1.4-0.2,2.5-0.5,3.2c-0.3,0.8-0.8,1.4-1.4,1.9c-0.6,0.5-1.2,0.9-1.9,1
			c-0.9,0.2-1.8,0.4-2.5,0.4h-6.3V11.7z M-60.4,11.7h4.5l3.4,2.7l3.6-2.7h4v13h-4.3v-7.3l-3.4,3.9l-0.2,0.1l-3-3.7v7.1h-4.5V11.7z"
			/>
		<path class="st1" d="M-40.1,14v7.1h1c0.9,0,1.5-0.1,1.9-0.3c0.4-0.2,0.7-0.5,0.9-1c0.2-0.5,0.3-1.2,0.3-2.3c0-1.4-0.2-2.3-0.7-2.8
			c-0.5-0.5-1.3-0.8-2.4-0.8H-40.1z M-44.4,11h6.3c1.2,0,2.3,0.2,3,0.5c0.8,0.3,1.4,0.8,1.9,1.4c0.5,0.6,0.9,1.3,1.1,2.1
			c0.2,0.8,0.3,1.6,0.3,2.5c0,1.4-0.2,2.5-0.5,3.2c-0.3,0.8-0.8,1.4-1.4,1.9c-0.6,0.5-1.2,0.9-1.9,1c-0.9,0.2-1.8,0.4-2.5,0.4h-6.3
			V11z M-59.7,11h4.5l3.4,2.7l3.6-2.7h4v13h-4.3v-7.3l-3.4,3.9l-0.2,0.1l-3-3.7v7.1h-4.5V11z"/>
		<polygon class="st0" points="-46.9,-1.2 -46.6,-0.4 -45.9,0.2 -45.5,1.1 -45.7,2.7 -45.4,8.5 -44.4,8.4 -43.8,7.5 -42.9,7 
			-42.3,6.6 -41.4,6.6 -40.6,6 -39.6,5.2 -38.7,4.6 -37.8,4.1 -36.6,3.1 -35.9,2.3 -34.7,1.8 -33.8,1.1 -32.9,1.7 -32.9,2.7 
			-33.6,3.3 -35.2,4.3 -37.1,5.6 -37.9,6.6 -39.1,6.8 -39.7,7.4 -40.8,7.9 -41.4,8.4 -42.6,9.3 -43.9,10.3 -45,11 -45.2,12.9 
			-45.2,15.4 -45.2,18.1 -44.7,21.5 -44.3,24.2 -44.5,26.3 -44.2,28.4 -43.7,31.4 -43.7,32.1 -43.8,33.7 -43.6,37.1 -44,38.9 
			-43.7,39.7 -45.7,38.9 -46.2,38.1 -45.6,30.8 -45.9,27.9 -46.5,26 -46.5,22.7 -47.1,20.8 -47.1,18 -47.2,12.8 -47.5,11.8 
			-49.1,12.4 -50.5,13.4 -51.1,14.5 -52.6,15.5 -54.8,16.5 -56.5,17.7 -58.3,18.9 -59.3,19.3 -60.1,19.3 -60.3,18.8 -60.3,18 
			-58.9,17.2 -56.9,16.1 -55.2,14.8 -53.9,13.7 -52.5,12.3 -51.9,11.9 -51.3,11.1 -50.1,10.4 -49.2,9.9 -47.5,9.3 -47.8,1.5 
			-48.2,0.1 		"/>
		<polygon class="st2" points="-46.1,-1.6 -45.7,-0.7 -45.1,-0.2 -44.6,0.7 -44.8,2.3 -44.5,8.1 -43.5,8 -42.9,7.1 -42,6.6 
			-41.4,6.2 -40.5,6.2 -39.7,5.6 -38.7,4.8 -37.8,4.2 -36.9,3.7 -35.7,2.8 -35,1.9 -33.8,1.4 -32.9,0.7 -32,1.3 -32,2.3 -32.7,2.9 
			-34.3,3.9 -36.2,5.2 -37,6.2 -38.2,6.4 -38.8,7 -39.9,7.5 -40.5,8 -41.7,8.9 -43,9.9 -44.2,10.6 -44.3,12.5 -44.3,15 -44.3,17.7 
			-43.8,21.1 -43.4,23.8 -43.6,25.9 -43.3,28 -42.8,31 -42.8,31.7 -42.9,33.3 -42.7,36.7 -43.2,38.5 -42.8,39.4 -44.8,38.5 
			-45.3,37.7 -44.7,30.4 -45.1,27.5 -45.6,25.6 -45.6,22.3 -46.2,20.4 -46.2,17.6 -46.3,12.4 -46.6,11.4 -48.2,12 -49.6,13 
			-50.2,14.1 -51.8,15.1 -53.9,16.2 -55.7,17.3 -57.4,18.5 -58.4,18.9 -59.2,18.9 -59.5,18.4 -59.5,17.6 -58,16.8 -56,15.7 
			-54.3,14.4 -53,13.3 -51.6,11.9 -51,11.5 -50.4,10.7 -49.2,10 -48.3,9.5 -46.6,8.9 -47,1.1 -47.3,-0.3 		"/>
		<path class="st3" d="M-42.5,39.6l-2.4-1l-0.5-0.9l0.6-7.4l-0.3-2.9l-0.6-1.9v-3.3l-0.6-2v-2.8l-0.1-5.1l-0.3-0.8l-1.4,0.6
			l-1.4,0.9l-0.6,1.1l-1.6,1.1l-2.1,1l-1.8,1.1l-1.8,1.2l-1.1,0.4h-0.9l-0.3-0.7v-0.9l1.5-0.9l2-1l1.6-1.3l1.3-1.1l1.3-1.3l0.7-0.4
			l0.6-0.8l2.1-1.2l1.6-0.5l-0.3-7.7l-0.4-1.5l1.5-1.5l0.4,1l0.7,0.5l0.5,1l-0.2,1.7l0.3,5.6l0.8-0.1L-43,7l0.9-0.5l0.7-0.4h0.9
			l0.7-0.5l1-0.8l0.9-0.6l0.9-0.5l1.2-0.9l0.7-0.8l1.2-0.5l1-0.8l1.1,0.7v1.2L-32.6,3l-1.7,1l-1.9,1.3l-0.8,1l-1.2,0.2l-0.6,0.6
			l-1.1,0.5l-0.5,0.5l-1.2,0.9L-43,10l-1.1,0.7l-0.1,1.9v5.1l0.4,3.4l0.4,2.7l-0.2,2.2l0.3,2l0.4,3l0,0.7l-0.1,1.6l0.2,3.4l-0.4,1.8
			L-42.5,39.6z M-44.7,38.4l1.6,0.7l-0.2-0.5l0.5-1.9l-0.2-3.4l0.1-1.6V31l-0.4-3l-0.3-2.1l0.2-2.2l-0.4-2.7l-0.4-3.4v-5.2l0.1-2
			l1.2-0.8l1.3-0.9l1.2-0.9l0.6-0.5l1.1-0.5l0.6-0.6l1.2-0.2l0.8-0.9l1.9-1.3l1.7-1l0.6-0.5V1.4l-0.7-0.5l-0.8,0.7l-1.2,0.5
			l-0.6,0.8l-1.3,1l-0.9,0.5L-38.6,5l-1,0.8l-0.8,0.6h-0.9L-42,6.7l-0.9,0.5l-0.6,1l-1.3,0.1L-45,2.4l0.2-1.6l-0.4-0.8l-0.7-0.5
			l-0.3-0.6l-1,1l0.3,1.4l0.3,8l-1.8,0.6l-2.1,1.2l-0.6,0.8l-0.7,0.4l-1.3,1.3l-1.4,1.1l-1.7,1.3l-2,1l-1.4,0.8v0.7l0.2,0.4h0.6
			l1-0.4l1.8-1.2L-54,16l2.1-1l1.5-1l0.6-1.1l1.5-1l1.8-0.7l0.4,1.2l0.1,5.2v2.8l0.6,2v3.3l0.6,1.8l0.3,2.9l-0.6,7.3L-44.7,38.4z"/>
	</g>
</g>
<g>
	<path class="st0" d="M21.7,18.7v7.1h1c0.9,0,1.5-0.1,1.9-0.3c0.4-0.2,0.7-0.5,0.9-1c0.2-0.5,0.3-1.2,0.3-2.3c0-1.4-0.2-2.3-0.7-2.8
		c-0.5-0.5-1.3-0.8-2.4-0.8H21.7z M17.4,15.8h6.3c1.2,0,2.3,0.2,3,0.5c0.8,0.3,1.4,0.8,1.9,1.4c0.5,0.6,0.9,1.3,1.1,2.1
		c0.2,0.8,0.3,1.6,0.3,2.5c0,1.4-0.2,2.5-0.5,3.2c-0.3,0.8-0.8,1.4-1.4,1.9c-0.6,0.5-1.2,0.9-1.9,1c-0.9,0.2-1.8,0.4-2.5,0.4h-6.3
		V15.8z M2.1,15.8h4.5l3.4,2.7l3.6-2.7h4v13h-4.3v-7.3l-3.4,3.9l-0.2,0.1l-3-3.7v7.1H2.1V15.8z"/>
	<path class="st1" d="M22.3,18.1v7.1h1c0.9,0,1.5-0.1,1.9-0.3c0.4-0.2,0.7-0.5,0.9-1c0.2-0.5,0.3-1.2,0.3-2.3c0-1.4-0.2-2.3-0.7-2.8
		c-0.5-0.5-1.3-0.8-2.4-0.8H22.3z M18.1,15.1h6.3c1.2,0,2.3,0.2,3,0.5c0.8,0.3,1.4,0.8,1.9,1.4c0.5,0.6,0.9,1.3,1.1,2.1
		c0.2,0.8,0.3,1.6,0.3,2.5c0,1.4-0.2,2.5-0.5,3.2c-0.3,0.8-0.8,1.4-1.4,1.9c-0.6,0.5-1.2,0.9-1.9,1c-0.9,0.2-1.8,0.4-2.5,0.4h-6.3
		V15.1z M2.8,15.1h4.5l3.4,2.7l3.6-2.7h4v13h-4.3v-7.3l-3.4,3.9l-0.2,0.1l-3-3.7v7.1H2.8V15.1z"/>
	<polygon class="st0" points="15.5,2.9 15.9,3.7 16.5,4.2 17,5.2 16.8,6.8 17.1,12.6 18.1,12.5 18.7,11.6 19.6,11 20.2,10.6 
		21.1,10.6 21.9,10.1 22.9,9.3 23.8,8.7 24.7,8.2 25.9,7.2 26.6,6.4 27.8,5.9 28.7,5.2 29.6,5.8 29.6,6.8 28.9,7.3 27.3,8.4 
		25.4,9.7 24.6,10.6 23.4,10.8 22.8,11.5 21.7,12 21.1,12.5 19.9,13.4 18.6,14.3 17.4,15.1 17.3,17 17.3,19.5 17.3,22.2 17.8,25.6 
		18.2,28.3 18,30.4 18.3,32.5 18.8,35.5 18.8,36.2 18.7,37.7 18.9,41.1 18.4,43 18.8,43.8 16.8,43 16.3,42.2 16.9,34.9 16.5,32 
		16,30.1 16,26.8 15.4,24.9 15.4,22.1 15.3,16.9 15,15.9 13.4,16.5 12,17.4 11.4,18.6 9.8,19.6 7.7,20.6 5.9,21.8 4.2,23 3.2,23.4 
		2.4,23.4 2.1,22.9 2.1,22.1 3.6,21.3 5.6,20.2 7.3,18.9 8.6,17.7 10,16.4 10.6,16 11.2,15.2 12.4,14.4 13.3,13.9 15,13.4 14.6,5.6 
		14.3,4.1 	"/>
	<polygon class="st2" points="16.4,2.5 16.8,3.3 17.4,3.8 17.9,4.8 17.7,6.4 18,12.2 19,12.1 19.6,11.2 20.5,10.7 21.1,10.2 
		22,10.2 22.8,9.7 23.8,8.9 24.7,8.3 25.6,7.8 26.8,6.8 27.5,6 28.7,5.5 29.6,4.8 30.5,5.4 30.5,6.4 29.8,6.9 28.2,8 26.3,9.3 
		25.5,10.2 24.2,10.4 23.7,11.1 22.6,11.6 22,12.1 20.8,13 19.4,14 18.3,14.7 18.2,16.6 18.2,19.1 18.2,21.8 18.7,25.2 19.1,27.9 
		18.9,30 19.2,32.1 19.7,35.1 19.7,35.8 19.6,37.4 19.8,40.8 19.3,42.6 19.7,43.4 17.7,42.6 17.2,41.8 17.8,34.5 17.4,31.6 
		16.9,29.7 16.9,26.4 16.3,24.5 16.3,21.7 16.2,16.5 15.9,15.5 14.3,16.1 12.9,17 12.3,18.2 10.7,19.2 8.6,20.2 6.8,21.4 5,22.6 
		4,23 3.3,23 3,22.5 3,21.7 4.5,20.9 6.5,19.8 8.2,18.5 9.5,17.4 10.9,16 11.5,15.6 12.1,14.8 13.3,14.1 14.2,13.5 15.9,13 
		15.5,5.2 15.2,3.7 	"/>
	<path class="st3" d="M20,43.7l-2.4-1L17,41.8l0.6-7.4l-0.3-2.9l-0.6-1.9v-3.3l-0.6-2v-2.8L16,16.6l-0.3-0.8l-1.4,0.6L13,17.2
		l-0.6,1.1l-1.6,1.1l-2.1,1l-1.8,1.1l-1.8,1.2L4,23.2H3.2l-0.3-0.7v-0.9l1.5-0.9l2-1l1.6-1.3l1.3-1.1l1.3-1.3l0.7-0.4l0.6-0.8
		l2.1-1.2l1.6-0.5l-0.3-7.7L15,3.7l1.5-1.5l0.4,1l0.7,0.5l0.5,1l-0.2,1.7l0.3,5.6l0.8-0.1l0.5-0.9l0.9-0.5l0.7-0.4H22l0.7-0.5l1-0.8
		l0.9-0.6l0.9-0.5l1.2-0.9l0.7-0.8l1.2-0.5l1-0.8l1.1,0.7v1.2l-0.7,0.6l-1.7,1l-1.9,1.3l-0.8,1l-1.2,0.2l-0.6,0.6l-1.1,0.5l-0.5,0.5
		l-1.2,0.9l-1.3,0.9l-1.1,0.7l-0.1,1.9v5.1l0.4,3.4l0.4,2.7L19.1,30l0.3,2l0.4,3l0,0.7l-0.1,1.6l0.2,3.4l-0.4,1.8L20,43.7z
		 M17.8,42.5l1.6,0.7l-0.2-0.5l0.5-1.9l-0.2-3.4l0.1-1.6v-0.7l-0.4-3L18.7,30l0.2-2.2l-0.4-2.7l-0.4-3.4v-5.2l0.1-2l1.2-0.8l1.3-0.9
		l1.2-0.9l0.6-0.5l1.1-0.5l0.6-0.6l1.2-0.2l0.8-0.9l1.9-1.3l1.7-1l0.6-0.5V5.5L29.6,5l-0.8,0.7l-1.2,0.5l-0.6,0.8l-1.3,1l-0.9,0.5
		L23.9,9l-1,0.8l-0.8,0.6h-0.9l-0.6,0.4l-0.9,0.5l-0.6,1l-1.3,0.1l-0.3-5.9l0.2-1.6L17.3,4l-0.7-0.5l-0.3-0.6l-1,1l0.3,1.4l0.3,8
		l-1.8,0.6l-2.1,1.2l-0.6,0.8l-0.7,0.4l-1.3,1.3l-1.4,1.1L6.6,20l-2,1l-1.4,0.8v0.7l0.2,0.4H4l1-0.4l1.8-1.2l1.8-1.1l2.1-1l1.5-1
		l0.6-1.1l1.5-1l1.8-0.7l0.4,1.2l0.1,5.2v2.8l0.6,2v3.3l0.6,1.8l0.3,2.9l-0.6,7.3L17.8,42.5z"/>
</g>
</svg>
